/* XPM */
static char *result[] = {
/* columns rows colors chars-per-pixel */
"64 64 8 1 ",
"  c #45283C",
". c #57461E",
"X c #524B24",
"o c #685424",
"O c #AC3232",
"+ c #8A6F30",
"@ c #76428A",
"# c None",
/* pixels */
"################################################################",
"################################################################",
"################################################################",
"################################################################",
"################################################################",
"################################################################",
"################################################################",
"################################################################",
"################################################################",
"################################################################",
"################################################################",
"################################################################",
"################################################################",
"################################################################",
"################################################################",
"################################################################",
"########################    ############    ####################",
"########################    ############    ####################",
"########################    ############    ####################",
"########################    ############    ####################",
"########################    ++++++++++++    ####################",
"########################    ++++++++++++    ####################",
"########################    ++++++++++++    ####################",
"########################    ++++++++++++    ####################",
"########################++++    ++++    ++++####################",
"########################++++    ++++    ++++####################",
"########################++++    ++++    ++++####################",
"########################++++    ++++    ++++####################",
"####################++++++++++++++++++++++++++++################",
"####################++++++++++++++++++++++++++++################",
"####################++++++++++++++++++++++++++++################",
"####################++++++++++++++++++++++++++++################",
"####################++++++++++++XXXX++++XXXX++++################",
"####################++++++++++++XXXX++++XXXX++++################",
"####################++++++++++++XXXX++++XXXX++++################",
"####################++++++++++++XXXX++++XXXX++++################",
"########################oooo++++++++++++++++########@@@@@@@@####",
"########################oooo++++++++++++++++########@@@@@@@@####",
"########################oooo++++++++++++++++########@@@@@@@@####",
"########################oooo++++++++++++++++########@@@@@@@@####",
"########################....oooo++++++++############@@@@@@@@####",
"########################....oooo++++++++############@@@@@@@@####",
"########################....oooo++++++++############@@@@@@@@####",
"########################....oooo++++++++############@@@@@@@@####",
"####################oooo++++++++++++++++++++OOOO@@@@############",
"####################oooo++++++++++++++++++++OOOO@@@@############",
"####################oooo++++++++++++++++++++OOOO@@@@############",
"####################oooo++++++++++++++++++++OOOO@@@@############",
"################++++oooo++++++++++++++++++++OOOOOOOO############",
"################++++oooo++++++++++++++++++++OOOOOOOO############",
"################++++oooo++++++++++++++++++++OOOOOOOO############",
"################++++oooo++++++++++++++++++++OOOOOOOO############",
"####################oooooooo++++++++++++++++####################",
"####################oooooooo++++++++++++++++####################",
"####################oooooooo++++++++++++++++####################",
"####################oooooooo++++++++++++++++####################",
"####################OOOOooooooooooooooooOOOO####################",
"####################OOOOooooooooooooooooOOOO####################",
"####################OOOOooooooooooooooooOOOO####################",
"####################OOOOooooooooooooooooOOOO####################",
"################OOOO    ############OOOO    ####################",
"################OOOO    ############OOOO    ####################",
"################OOOO    ############OOOO    ####################",
"################OOOO    ############OOOO    ####################"
};
