/* XPM */
static char *result[] = {
/* columns rows colors chars-per-pixel */
"64 64 10 1 ",
"  c #2A3B1B",
". c #324620",
"X c #3B5225",
"o c #57461E",
"O c #524B24",
"+ c #435E2A",
"@ c #685424",
"# c #8A6F30",
"$ c #9BADB7",
"% c None",
/* pixels */
"%%%%%%%%%%%%%%%%%%%%%%%%%%%%%%%%%%%%%%%%%%%%%%%%%%%%%%%%%%%%%%%%",
"%%%%%%%%%%%%%%%%%%%%%%%%%%%%%%%%%%%%%%%%%%%%%%%%%%%%%%%%%%%%%%%%",
"%%%%%%%%%%%%%%%%%%%%%%%%%%%%%%%%%%%%%%%%%%%%%%%%%%%%%%%%%%%%%%%%",
"%%%%%%%%%%%%%%%%%%%%%%%%%%%%%%%%%%%%%%%%%%%%%%%%%%%%%%%%%%%%%%%%",
"%%%%%%%%%%%%%%%%%%%%%%%%%%%%%%%%%%%%%%%%%%%%%%%%%%%%%%%%%%%%%%%%",
"%%%%%%%%%%%%%%%%%%%%%%%%%%%%%%%%%%%%%%%%%%%%%%%%%%%%%%%%%%%%%%%%",
"%%%%%%%%%%%%%%%%%%%%%%%%%%%%%%%%%%%%%%%%%%%%%%%%%%%%%%%%%%%%%%%%",
"%%%%%%%%%%%%%%%%%%%%%%%%%%%%%%%%%%%%%%%%%%%%%%%%%%%%%%%%%%%%%%%%",
"%%%%%%%%%%%%%%%%%%%%%%%%%%%%%%%%%%%%%%%%%%%%%%%%%%%%%%%%%%%%%%%%",
"%%%%%%%%%%%%%%%%%%%%%%%%%%%%%%%%%%%%%%%%%%%%%%%%%%%%%%%%%%%%%%%%",
"%%%%%%%%%%%%%%%%%%%%%%%%%%%%%%%%%%%%%%%%%%%%%%%%%%%%%%%%%%%%%%%%",
"%%%%%%%%%%%%%%%%%%%%%%%%%%%%%%%%%%%%%%%%%%%%%%%%%%%%%%%%%%%%%%%%",
"%%%%%%%%%%%%%%%%%%%%%%%%%%%%%%%%%%%%%%%%%%%%%%%%%%%%%%%%%%%%%%%%",
"%%%%%%%%%%%%%%%%%%%%%%%%%%%%%%%%%%%%%%%%%%%%%%%%%%%%%%%%%%%%%%%%",
"%%%%%%%%%%%%%%%%%%%%%%%%%%%%%%%%%%%%%%%%%%%%%%%%%%%%%%%%%%%%%%%%",
"%%%%%%%%%%%%%%%%%%%%%%%%%%%%%%%%%%%%%%%%%%%%%%%%%%%%%%%%%%%%%%%%",
"%%%%%%%%%%%%%%%%%%%%%%%%                    %%%%%%%%%%%%%%%%%%%%",
"%%%%%%%%%%%%%%%%%%%%%%%%                    %%%%%%%%%%%%%%%%%%%%",
"%%%%%%%%%%%%%%%%%%%%%%%%                    %%%%%%%%%%%%%%%%%%%%",
"%%%%%%%%%%%%%%%%%%%%%%%%                    %%%%%%%%%%%%%%%%%%%%",
"%%%%%%%%%%%%%%%%%%%%    ....    ....    ....    %%%%%%%%%%%%%%%%",
"%%%%%%%%%%%%%%%%%%%%    ....    ....    ....    %%%%%%%%%%%%%%%%",
"%%%%%%%%%%%%%%%%%%%%    ....    ....    ....    %%%%%%%%%%%%%%%%",
"%%%%%%%%%%%%%%%%%%%%    ....    ....    ....    %%%%%%%%%%%%%%%%",
"%%%%%%%%%%%%%%%%    ....    ....    ....    ....    %%%%%%%%%%%%",
"%%%%%%%%%%%%%%%%    ....    ....    ....    ....    %%%%%%%%%%%%",
"%%%%%%%%%%%%%%%%    ....    ....    ....    ....    %%%%%%%%%%%%",
"%%%%%%%%%%%%%%%%    ....    ....    ....    ....    %%%%%%%%%%%%",
"%%%%%%%%%%%%%%%%                                    %%%%%%%%%%%%",
"%%%%%%%%%%%%%%%%                                    %%%%%%%%%%%%",
"%%%%%%%%%%%%%%%%                                    %%%%%%%%%%%%",
"%%%%%%%%%%%%%%%%                                    %%%%%%%%%%%%",
"%%%%%%%%%%%%%%%%%%%%####OOOO####OOOO####XXXX####%%%%%%%%%%%%%%%%",
"%%%%%%%%%%%%%%%%%%%%####OOOO####OOOO####XXXX####%%%%%%%%%%%%%%%%",
"%%%%%%%%%%%%%%%%%%%%####OOOO####OOOO####XXXX####%%%%%%%%%%%%%%%%",
"%%%%%%%%%%%%%%%%%%%%####OOOO####OOOO####XXXX####%%%%%%%%%%%%%%%%",
"%%%%%%%%%%%%%%%%%%%%%%%%############XXXX@@@@%%%%%%%%%%%%%%%%%%%%",
"%%%%%%%%%%%%%%%%%%%%%%%%############XXXX@@@@%%%%%%%%%%%%%%%%%%%%",
"%%%%%%%%%%%%%%%%%%%%%%%%############XXXX@@@@%%%%%%%%%%%%%%%%%%%%",
"%%%%%%%%%%%%%%%%%%%%%%%%############XXXX@@@@%%%%%%%%%%%%%%%%%%%%",
"%%%%%%%%%%%%$$$$%%%%%%%%%%%%########@@@@oooo%%%%%%%%%%%%%%%%%%%%",
"%%%%%%%%%%%%$$$$%%%%%%%%%%%%########@@@@oooo%%%%%%%%%%%%%%%%%%%%",
"%%%%%%%%%%%%$$$$%%%%%%%%%%%%########@@@@oooo%%%%%%%%%%%%%%%%%%%%",
"%%%%%%%%%%%%$$$$%%%%%%%%%%%%########@@@@oooo%%%%%%%%%%%%%%%%%%%%",
"%%%%%%%%%%%%%%%%$$$$++++####################@@@@%%%%%%%%%%%%%%%%",
"%%%%%%%%%%%%%%%%$$$$++++####################@@@@%%%%%%%%%%%%%%%%",
"%%%%%%%%%%%%%%%%$$$$++++####################@@@@%%%%%%%%%%%%%%%%",
"%%%%%%%%%%%%%%%%$$$$++++####################@@@@%%%%%%%%%%%%%%%%",
"%%%%%%%%%%%%%%%%++++++++####################@@@@####%%%%%%%%%%%%",
"%%%%%%%%%%%%%%%%++++++++####################@@@@####%%%%%%%%%%%%",
"%%%%%%%%%%%%%%%%++++++++####################@@@@####%%%%%%%%%%%%",
"%%%%%%%%%%%%%%%%++++++++####################@@@@####%%%%%%%%%%%%",
"%%%%%%%%%%%%%%%%%%%%%%%%####XXXX########@@@@%%%%%%%%%%%%%%%%%%%%",
"%%%%%%%%%%%%%%%%%%%%%%%%####XXXX########@@@@%%%%%%%%%%%%%%%%%%%%",
"%%%%%%%%%%%%%%%%%%%%%%%%####XXXX########@@@@%%%%%%%%%%%%%%%%%%%%",
"%%%%%%%%%%%%%%%%%%%%%%%%####XXXX########@@@@%%%%%%%%%%%%%%%%%%%%",
"%%%%%%%%%%%%%%%%%%%%%%%%@@@@@@@@XXXX....@@@@%%%%%%%%%%%%%%%%%%%%",
"%%%%%%%%%%%%%%%%%%%%%%%%@@@@@@@@XXXX....@@@@%%%%%%%%%%%%%%%%%%%%",
"%%%%%%%%%%%%%%%%%%%%%%%%@@@@@@@@XXXX....@@@@%%%%%%%%%%%%%%%%%%%%",
"%%%%%%%%%%%%%%%%%%%%%%%%@@@@@@@@XXXX....@@@@%%%%%%%%%%%%%%%%%%%%",
"%%%%%%%%%%%%%%%%%%%%XXXX....%%%%%%%%%%%%%%%%%%%%%%%%%%%%%%%%%%%%",
"%%%%%%%%%%%%%%%%%%%%XXXX....%%%%%%%%%%%%%%%%%%%%%%%%%%%%%%%%%%%%",
"%%%%%%%%%%%%%%%%%%%%XXXX....%%%%%%%%%%%%%%%%%%%%%%%%%%%%%%%%%%%%",
"%%%%%%%%%%%%%%%%%%%%XXXX....%%%%%%%%%%%%%%%%%%%%%%%%%%%%%%%%%%%%"
};
