/* XPM */
static char *_d5eff8dc9fe45eae54ff0bca485f0e5exhhxYIclkNHHTIn[] = {
/* columns rows colors chars-per-pixel */
"64 64 6 1 ",
"  c #FE0000",
". c #FFDE00",
"X c #FFFF3A",
"o c #65A49B",
"O c #FFFFA5",
"+ c #FFE7C5",
/* pixels */
"oooooooooooooooooooooooooooooooooooooooooooooooooooooooooooooooo",
"oooooooooooooooooooooooooooooooooooooooooooooooooooooooooooooooo",
"oooooooooooooooooooooooooooooooooooooooooooooooooooooooooooooooo",
"oooooooooooooooooooooooooooooooooooooooooooooooooooooooooooooooo",
"oooooooooooooooooooooooooooooooooooooooooooooooooooooooooooooooo",
"oooooooooooooooooooooooooooooooooooooooooooooooooooooooooooooooo",
"oooooooooooooooooooooooooooooooooooooooooooooooooooooooooooooooo",
"oooooooooooooooooooooooooooooooooooooooooooooooooooooooooooooooo",
"oooooooooooooooooooooooooooooooooooooooooooooooooooooooooooooooo",
"oooooooooooooooooooooooooooooooooooooooooooooooooooooooooooooooo",
"oooooooooooooooooooooooooooooooooooooooooooooooooooooooooooooooo",
"oooooooooooooooooooooooooooooooooooooooooooooooooooooooooooooooo",
"ooooooooooooooooooooooooooooooooooooooooXXXXoooooooooooooooooooo",
"ooooooooooooooooooooooooooooooooooooooooXXXXoooooooooooooooooooo",
"ooooooooooooooooooooooooooooooooooooooooXXXXoooooooooooooooooooo",
"ooooooooooooooooooooooooooooooooooooooooXXXXoooooooooooooooooooo",
"oooooooooooooooooooooooooooooooooooo............XXXXoooooooooooo",
"oooooooooooooooooooooooooooooooooooo............XXXXoooooooooooo",
"oooooooooooooooooooooooooooooooooooo............XXXXoooooooooooo",
"oooooooooooooooooooooooooooooooooooo............XXXXoooooooooooo",
"ooooooooooooooooooooooooooooooooXXXX............oooooooooooooooo",
"ooooooooooooooooooooooooooooooooXXXX............oooooooooooooooo",
"ooooooooooooooooooooooooooooooooXXXX............oooooooooooooooo",
"ooooooooooooooooooooooooooooooooXXXX............oooooooooooooooo",
"ooooooooooooooooooooooooooooooooooooXXXX....    oooooooooooooooo",
"ooooooooooooooooooooooooooooooooooooXXXX....    oooooooooooooooo",
"ooooooooooooooooooooooooooooooooooooXXXX....    oooooooooooooooo",
"ooooooooooooooooooooooooooooooooooooXXXX....    oooooooooooooooo",
"oooooooooooooooooooooooooooooooooooo    OOOO....XXXXoooooooooooo",
"oooooooooooooooooooooooooooooooooooo    OOOO....XXXXoooooooooooo",
"oooooooooooooooooooooooooooooooooooo    OOOO....XXXXoooooooooooo",
"oooooooooooooooooooooooooooooooooooo    OOOO....XXXXoooooooooooo",
"oooooooooooooooooooooooooooooooooooo....OOOO....oooooooooooooooo",
"oooooooooooooooooooooooooooooooooooo....OOOO....oooooooooooooooo",
"oooooooooooooooooooooooooooooooooooo....OOOO....oooooooooooooooo",
"oooooooooooooooooooooooooooooooooooo....OOOO....oooooooooooooooo",
"oooooooooooooooooooooooooooooooooooo....    ....oooooooooooooooo",
"oooooooooooooooooooooooooooooooooooo....    ....oooooooooooooooo",
"oooooooooooooooooooooooooooooooooooo....    ....oooooooooooooooo",
"oooooooooooooooooooooooooooooooooooo....    ....oooooooooooooooo",
"oooooooooooooooooooooooooooooooooooo........    oooooooooooooooo",
"oooooooooooooooooooooooooooooooooooo........    oooooooooooooooo",
"oooooooooooooooooooooooooooooooooooo........    oooooooooooooooo",
"oooooooooooooooooooooooooooooooooooo........    oooooooooooooooo",
"oooooooooooooooooooooooooooooooooooo    ........oooooooooooooooo",
"oooooooooooooooooooooooooooooooooooo    ........oooooooooooooooo",
"oooooooooooooooooooooooooooooooooooo    ........oooooooooooooooo",
"oooooooooooooooooooooooooooooooooooo    ........oooooooooooooooo",
"oooooooooooooooooooooooooooooooooooo............oooooooooooooooo",
"oooooooooooooooooooooooooooooooooooo............oooooooooooooooo",
"oooooooooooooooooooooooooooooooooooo............oooooooooooooooo",
"oooooooooooooooooooooooooooooooooooo............oooooooooooooooo",
"oooooooooooooooooooooooooooooooooooo............oooooooooooooooo",
"oooooooooooooooooooooooooooooooooooo............oooooooooooooooo",
"oooooooooooooooooooooooooooooooooooo............oooooooooooooooo",
"oooooooooooooooooooooooooooooooooooo............oooooooooooooooo",
"oooooooooooooooooooooooooooooooooooo++++++++++++oooooooooooooooo",
"oooooooooooooooooooooooooooooooooooo++++++++++++oooooooooooooooo",
"oooooooooooooooooooooooooooooooooooo++++++++++++oooooooooooooooo",
"oooooooooooooooooooooooooooooooooooo++++++++++++oooooooooooooooo",
"oooooooooooooooooooooooooooooooooooooooooooooooooooooooooooooooo",
"oooooooooooooooooooooooooooooooooooooooooooooooooooooooooooooooo",
"oooooooooooooooooooooooooooooooooooooooooooooooooooooooooooooooo",
"oooooooooooooooooooooooooooooooooooooooooooooooooooooooooooooooo"
};
