/* XPM */
static char *result[] = {
/* columns rows colors chars-per-pixel */
"64 64 6 1 ",
"  c #FE0000",
". c #FFDE00",
"X c #FFFF3A",
"o c #65A49B",
"O c #FFFFA5",
"+ c #FFE7C5",
/* pixels */
"oooooooooooooooooooooooooooooooooooooooooooooooooooooooooooooooo",
"oooooooooooooooooooooooooooooooooooooooooooooooooooooooooooooooo",
"oooooooooooooooooooooooooooooooooooooooooooooooooooooooooooooooo",
"oooooooooooooooooooooooooooooooooooooooooooooooooooooooooooooooo",
"oooooooooooooooooooooooooooooooooooooooooooooooooooooooooooooooo",
"oooooooooooooooooooooooooooooooooooooooooooooooooooooooooooooooo",
"oooooooooooooooooooooooooooooooooooooooooooooooooooooooooooooooo",
"oooooooooooooooooooooooooooooooooooooooooooooooooooooooooooooooo",
"oooooooooooooooooooooooooooooooooooooooooooooooooooooooooooooooo",
"oooooooooooooooooooooooooooooooooooooooooooooooooooooooooooooooo",
"oooooooooooooooooooooooooooooooooooooooooooooooooooooooooooooooo",
"oooooooooooooooooooooooooooooooooooooooooooooooooooooooooooooooo",
"oooooooooooooooooooooooooooooooooooooooooooooooooooooooooooooooo",
"oooooooooooooooooooooooooooooooooooooooooooooooooooooooooooooooo",
"oooooooooooooooooooooooooooooooooooooooooooooooooooooooooooooooo",
"oooooooooooooooooooooooooooooooooooooooooooooooooooooooooooooooo",
"oooooooooooooooooooooooooooooooooooooooooooooooooooooooooooooooo",
"oooooooooooooooooooooooooooooooooooooooooooooooooooooooooooooooo",
"oooooooooooooooooooooooooooooooooooooooooooooooooooooooooooooooo",
"oooooooooooooooooooooooooooooooooooooooooooooooooooooooooooooooo",
"oooooooooooooooooooooooooooooooooooooooooooooooooooooooooooooooo",
"oooooooooooooooooooooooooooooooooooooooooooooooooooooooooooooooo",
"oooooooooooooooooooooooooooooooooooooooooooooooooooooooooooooooo",
"oooooooooooooooooooooooooooooooooooooooooooooooooooooooooooooooo",
"oooooooooooooooooooooooooooooooooooooooooooooooooooooooooooooooo",
"oooooooooooooooooooooooooooooooooooooooooooooooooooooooooooooooo",
"oooooooooooooooooooooooooooooooooooooooooooooooooooooooooooooooo",
"oooooooooooooooooooooooooooooooooooooooooooooooooooooooooooooooo",
"oooooooooooooooooooooooooooooooooooooooooooooooooooooooooooooooo",
"oooooooooooooooooooooooooooooooooooooooooooooooooooooooooooooooo",
"oooooooooooooooooooooooooooooooooooooooooooooooooooooooooooooooo",
"oooooooooooooooooooooooooooooooooooooooooooooooooooooooooooooooo",
"oooooooooooooooooooooooooooooooooooooooooooooooooooooooooooooooo",
"oooooooooooooooooooooooooooooooooooooooooooooooooooooooooooooooo",
"oooooooooooooooooooooooooooooooooooooooooooooooooooooooooooooooo",
"oooooooooooooooooooooooooooooooooooooooooooooooooooooooooooooooo",
"oooooooooooooooooooooooooooooooooooo............oooooooooooooooo",
"oooooooooooooooooooooooooooooooooooo............oooooooooooooooo",
"oooooooooooooooooooooooooooooooooooo............oooooooooooooooo",
"oooooooooooooooooooooooooooooooooooo............oooooooooooooooo",
"oooooooooooooooooooooooooooooooo........OOOO    ....oooooooooooo",
"oooooooooooooooooooooooooooooooo........OOOO    ....oooooooooooo",
"oooooooooooooooooooooooooooooooo........OOOO    ....oooooooooooo",
"oooooooooooooooooooooooooooooooo........OOOO    ....oooooooooooo",
"oooooooooooooooooooooooooooooooo....    ............oooooooooooo",
"oooooooooooooooooooooooooooooooo....    ............oooooooooooo",
"oooooooooooooooooooooooooooooooo....    ............oooooooooooo",
"oooooooooooooooooooooooooooooooo....    ............oooooooooooo",
"ooooooooooooooooXXXXoooooooo............    ....    ....oooooooo",
"ooooooooooooooooXXXXoooooooo............    ....    ....oooooooo",
"ooooooooooooooooXXXXoooooooo............    ....    ....oooooooo",
"ooooooooooooooooXXXXoooooooo............    ....    ....oooooooo",
"oooooooooooooooooooooooooooo........    ................oooooooo",
"oooooooooooooooooooooooooooo........    ................oooooooo",
"oooooooooooooooooooooooooooo........    ................oooooooo",
"oooooooooooooooooooooooooooo........    ................oooooooo",
"oooooooooooooooooooooooooooooooooooo++++XXXX++++ooooooooooooXXXX",
"oooooooooooooooooooooooooooooooooooo++++XXXX++++ooooooooooooXXXX",
"oooooooooooooooooooooooooooooooooooo++++XXXX++++ooooooooooooXXXX",
"oooooooooooooooooooooooooooooooooooo++++XXXX++++ooooooooooooXXXX",
"oooooooooooooooooooooooooooooooooooooooooooooooooooooooooooooooo",
"oooooooooooooooooooooooooooooooooooooooooooooooooooooooooooooooo",
"oooooooooooooooooooooooooooooooooooooooooooooooooooooooooooooooo",
"oooooooooooooooooooooooooooooooooooooooooooooooooooooooooooooooo"
};
