/* XPM */
static char *result[] = {
/* columns rows colors chars-per-pixel */
"64 64 13 1 ",
"  c #833100",
". c #FE0000",
"X c #FF4200",
"o c #FFDE00",
"O c #FFFF3A",
"+ c #FFAD63",
"@ c #0000FE",
"# c #0163C6",
"$ c #64A5FF",
"% c #F7C4A5",
"& c #FFFFA5",
"* c #FFE7C5",
"= c None",
/* pixels */
"================================================================",
"================================================================",
"================================================================",
"================================================================",
"================================================================",
"================================================================",
"================================================================",
"================================================================",
"================================================================",
"================================================================",
"================================================================",
"================================================================",
"============================OOOOOOOOOOOOoooo====================",
"============================OOOOOOOOOOOOoooo====================",
"============================OOOOOOOOOOOOoooo====================",
"============================OOOOOOOOOOOOoooo====================",
"====================OOOOOOOO%%%%%%%%OOOOOOOOoooo================",
"====================OOOOOOOO%%%%%%%%OOOOOOOOoooo================",
"====================OOOOOOOO%%%%%%%%OOOOOOOOoooo================",
"====================OOOOOOOO%%%%%%%%OOOOOOOOoooo================",
"====================OOOO%%%%%%%%%%%%ooooOOOOoooo================",
"====================OOOO%%%%%%%%%%%%ooooOOOOoooo================",
"====================OOOO%%%%%%%%%%%%ooooOOOOoooo================",
"====================OOOO%%%%%%%%%%%%ooooOOOOoooo================",
"================OOOO%%%%OOOO%%%%OOOO%%%%ooooOOOOoooo============",
"================OOOO%%%%OOOO%%%%OOOO%%%%ooooOOOOoooo============",
"================OOOO%%%%OOOO%%%%OOOO%%%%ooooOOOOoooo============",
"================OOOO%%%%OOOO%%%%OOOO%%%%ooooOOOOoooo============",
"========XXXXoooo%%%%%%%%$$$$%%%%$$$$%%%%ooooOOOOoooo============",
"========XXXXoooo%%%%%%%%$$$$%%%%$$$$%%%%ooooOOOOoooo============",
"========XXXXoooo%%%%%%%%$$$$%%%%$$$$%%%%ooooOOOOoooo============",
"========XXXXoooo%%%%%%%%$$$$%%%%$$$$%%%%ooooOOOOoooo============",
"====ooooooooXXXXoooo%%%%%%%%%%%%%%%%%%%%%%%%++++@@@@oooo========",
"====ooooooooXXXXoooo%%%%%%%%%%%%%%%%%%%%%%%%++++@@@@oooo========",
"====ooooooooXXXXoooo%%%%%%%%%%%%%%%%%%%%%%%%++++@@@@oooo========",
"====ooooooooXXXXoooo%%%%%%%%%%%%%%%%%%%%%%%%++++@@@@oooo========",
"====XXXXoooooooooooo%%%%%%%%%%%%%%%%%%%%++++ooooOOOOoooo========",
"====XXXXoooooooooooo%%%%%%%%%%%%%%%%%%%%++++ooooOOOOoooo========",
"====XXXXoooooooooooo%%%%%%%%%%%%%%%%%%%%++++ooooOOOOoooo========",
"====XXXXoooooooooooo%%%%%%%%%%%%%%%%%%%%++++ooooOOOOoooo========",
"====####&&&&&&&&........++++++++++++++++....ooooOOOOoooo========",
"====####&&&&&&&&........++++++++++++++++....ooooOOOOoooo========",
"====####&&&&&&&&........++++++++++++++++....ooooOOOOoooo========",
"====####&&&&&&&&........++++++++++++++++....ooooOOOOoooo========",
"========####****####====....................====OOOOoooo========",
"========####****####====....................====OOOOoooo========",
"========####****####====....................====OOOOoooo========",
"========####****####====....................====OOOOoooo========",
"====@@@@@@@@@@@@@@@@====....    ............========OOOOOOOO====",
"====@@@@@@@@@@@@@@@@====....    ............========OOOOOOOO====",
"====@@@@@@@@@@@@@@@@====....    ............========OOOOOOOO====",
"====@@@@@@@@@@@@@@@@====....    ............========OOOOOOOO====",
"====@@@@@@@@@@@@@@@@====        ====........    ================",
"====@@@@@@@@@@@@@@@@====        ====........    ================",
"====@@@@@@@@@@@@@@@@====        ====........    ================",
"====@@@@@@@@@@@@@@@@====        ====........    ================",
"========@@@@@@@@====            ========        ================",
"========@@@@@@@@====            ========        ================",
"========@@@@@@@@====            ========        ================",
"========@@@@@@@@====            ========        ================",
"====================================            ================",
"====================================            ================",
"====================================            ================",
"====================================            ================"
};
