/* XPM */
static char *result[] = {
/* columns rows colors chars-per-pixel */
"64 64 6 1 ",
"  c #FE0000",
". c #FFDE00",
"X c #FFFF3A",
"o c #65A49B",
"O c #FFFFA5",
"+ c #FFE7C5",
/* pixels */
"oooooooooooooooooooooooooooooooooooooooooooooooooooooooooooooooo",
"oooooooooooooooooooooooooooooooooooooooooooooooooooooooooooooooo",
"oooooooooooooooooooooooooooooooooooooooooooooooooooooooooooooooo",
"oooooooooooooooooooooooooooooooooooooooooooooooooooooooooooooooo",
"oooooooooooooooooooooooooooooooooooooooooooooooooooooooooooooooo",
"oooooooooooooooooooooooooooooooooooooooooooooooooooooooooooooooo",
"oooooooooooooooooooooooooooooooooooooooooooooooooooooooooooooooo",
"oooooooooooooooooooooooooooooooooooooooooooooooooooooooooooooooo",
"oooooooooooooooooooooooooooooooooooooooooooooooooooooooooooooooo",
"oooooooooooooooooooooooooooooooooooooooooooooooooooooooooooooooo",
"oooooooooooooooooooooooooooooooooooooooooooooooooooooooooooooooo",
"oooooooooooooooooooooooooooooooooooooooooooooooooooooooooooooooo",
"oooooooooooooooooooooooooooooooooooooooooooooooooooooooooooooooo",
"oooooooooooooooooooooooooooooooooooooooooooooooooooooooooooooooo",
"oooooooooooooooooooooooooooooooooooooooooooooooooooooooooooooooo",
"oooooooooooooooooooooooooooooooooooooooooooooooooooooooooooooooo",
"oooooooooooooooooooooooooooooooooooooooooooooooooooooooooooooooo",
"oooooooooooooooooooooooooooooooooooooooooooooooooooooooooooooooo",
"oooooooooooooooooooooooooooooooooooooooooooooooooooooooooooooooo",
"oooooooooooooooooooooooooooooooooooooooooooooooooooooooooooooooo",
"oooooooooooooooooooooooooooooooooooooooooooooooooooooooooooooooo",
"oooooooooooooooooooooooooooooooooooooooooooooooooooooooooooooooo",
"oooooooooooooooooooooooooooooooooooooooooooooooooooooooooooooooo",
"oooooooooooooooooooooooooooooooooooooooooooooooooooooooooooooooo",
"oooooooooooooooooooooooooooooooooooooooooooooooooooooooooooooooo",
"oooooooooooooooooooooooooooooooooooooooooooooooooooooooooooooooo",
"oooooooooooooooooooooooooooooooooooooooooooooooooooooooooooooooo",
"oooooooooooooooooooooooooooooooooooooooooooooooooooooooooooooooo",
"ooooooooooooooooXXXXooooooooooooooooooooooooooooooooooooXXXXoooo",
"ooooooooooooooooXXXXooooooooooooooooooooooooooooooooooooXXXXoooo",
"ooooooooooooooooXXXXooooooooooooooooooooooooooooooooooooXXXXoooo",
"ooooooooooooooooXXXXooooooooooooooooooooooooooooooooooooXXXXoooo",
"ooooooooooooooooooooooooooooooooooooooooXXXXoooooooooooooooooooo",
"ooooooooooooooooooooooooooooooooooooooooXXXXoooooooooooooooooooo",
"ooooooooooooooooooooooooooooooooooooooooXXXXoooooooooooooooooooo",
"ooooooooooooooooooooooooooooooooooooooooXXXXoooooooooooooooooooo",
"oooooooooooooooooooooooooooooooooooooooooooooooooooooooooooooooo",
"oooooooooooooooooooooooooooooooooooooooooooooooooooooooooooooooo",
"oooooooooooooooooooooooooooooooooooooooooooooooooooooooooooooooo",
"oooooooooooooooooooooooooooooooooooooooooooooooooooooooooooooooo",
"oooooooooooooooooooooooooooooooo....................oooooooooooo",
"oooooooooooooooooooooooooooooooo....................oooooooooooo",
"oooooooooooooooooooooooooooooooo....................oooooooooooo",
"oooooooooooooooooooooooooooooooo....................oooooooooooo",
"oooooooooooooooooooooooooooo    ........OOOO....    ....ooooXXXX",
"oooooooooooooooooooooooooooo    ........OOOO....    ....ooooXXXX",
"oooooooooooooooooooooooooooo    ........OOOO....    ....ooooXXXX",
"oooooooooooooooooooooooooooo    ........OOOO....    ....ooooXXXX",
"ooooooooXXXXoooooooo................    ........................",
"ooooooooXXXXoooooooo................    ........................",
"ooooooooXXXXoooooooo................    ........................",
"ooooooooXXXXoooooooo................    ........................",
"oooooooooooooooooooo    ............................    ........",
"oooooooooooooooooooo    ............................    ........",
"oooooooooooooooooooo    ............................    ........",
"oooooooooooooooooooo    ............................    ........",
"oooooooooooooooooooooooooooooooooooo++++++++++++oooooooooooooooo",
"oooooooooooooooooooooooooooooooooooo++++++++++++oooooooooooooooo",
"oooooooooooooooooooooooooooooooooooo++++++++++++oooooooooooooooo",
"oooooooooooooooooooooooooooooooooooo++++++++++++oooooooooooooooo",
"oooooooooooooooooooooooooooooooooooooooooooooooooooooooooooooooo",
"oooooooooooooooooooooooooooooooooooooooooooooooooooooooooooooooo",
"oooooooooooooooooooooooooooooooooooooooooooooooooooooooooooooooo",
"oooooooooooooooooooooooooooooooooooooooooooooooooooooooooooooooo"
};
