/* XPM */
static char *result[] = {
/* columns rows colors chars-per-pixel */
"64 64 6 1 ",
"  c #FE0000",
". c #FFDE00",
"X c #FFFF3A",
"o c #65A49B",
"O c #FFFFA5",
"+ c #FFE7C5",
/* pixels */
"ooooooooooooooooooooooooooooooooooooooooXXXXoooooooooooooooooooo",
"ooooooooooooooooooooooooooooooooooooooooXXXXoooooooooooooooooooo",
"ooooooooooooooooooooooooooooooooooooooooXXXXoooooooooooooooooooo",
"ooooooooooooooooooooooooooooooooooooooooXXXXoooooooooooooooooooo",
"oooooooooooooooooooooooooooooooooooooooooooooooooooooooooooooooo",
"oooooooooooooooooooooooooooooooooooooooooooooooooooooooooooooooo",
"oooooooooooooooooooooooooooooooooooooooooooooooooooooooooooooooo",
"oooooooooooooooooooooooooooooooooooooooooooooooooooooooooooooooo",
"ooooooooooooooooooooooooXXXXooooooooooooooooooooooooXXXXoooooooo",
"ooooooooooooooooooooooooXXXXooooooooooooooooooooooooXXXXoooooooo",
"ooooooooooooooooooooooooXXXXooooooooooooooooooooooooXXXXoooooooo",
"ooooooooooooooooooooooooXXXXooooooooooooooooooooooooXXXXoooooooo",
"oooooooooooooooooooooooooooooooooooooooooooooooooooooooooooooooo",
"oooooooooooooooooooooooooooooooooooooooooooooooooooooooooooooooo",
"oooooooooooooooooooooooooooooooooooooooooooooooooooooooooooooooo",
"oooooooooooooooooooooooooooooooooooooooooooooooooooooooooooooooo",
"oooooooooooooooooooooooooooooooooooooooooooooooooooooooooooooooo",
"oooooooooooooooooooooooooooooooooooooooooooooooooooooooooooooooo",
"oooooooooooooooooooooooooooooooooooooooooooooooooooooooooooooooo",
"oooooooooooooooooooooooooooooooooooooooooooooooooooooooooooooooo",
"oooooooooooooooooooooooooooooooooooooooooooooooooooooooooooooooo",
"oooooooooooooooooooooooooooooooooooooooooooooooooooooooooooooooo",
"oooooooooooooooooooooooooooooooooooooooooooooooooooooooooooooooo",
"oooooooooooooooooooooooooooooooooooooooooooooooooooooooooooooooo",
"oooooooooooooooooooooooooooooooooooo............ooooooooXXXXoooo",
"oooooooooooooooooooooooooooooooooooo............ooooooooXXXXoooo",
"oooooooooooooooooooooooooooooooooooo............ooooooooXXXXoooo",
"oooooooooooooooooooooooooooooooooooo............ooooooooXXXXoooo",
"oooooooooooooooooooooooooooooooooooo............oooooooooooooooo",
"oooooooooooooooooooooooooooooooooooo............oooooooooooooooo",
"oooooooooooooooooooooooooooooooooooo............oooooooooooooooo",
"oooooooooooooooooooooooooooooooooooo............oooooooooooooooo",
"ooooooooooooooooooooXXXXoooooooo........OOOO........oooooooooooo",
"ooooooooooooooooooooXXXXoooooooo........OOOO........oooooooooooo",
"ooooooooooooooooooooXXXXoooooooo........OOOO........oooooooooooo",
"ooooooooooooooooooooXXXXoooooooo........OOOO........oooooooooooo",
"oooooooooooooooooooooooooooooooo    ....OOOO    ....oooooooooooo",
"oooooooooooooooooooooooooooooooo    ....OOOO    ....oooooooooooo",
"oooooooooooooooooooooooooooooooo    ....OOOO    ....oooooooooooo",
"oooooooooooooooooooooooooooooooo    ....OOOO    ....oooooooooooo",
"oooooooooooooooooooooooooooooooo....    ............oooooooooooo",
"oooooooooooooooooooooooooooooooo....    ............oooooooooooo",
"oooooooooooooooooooooooooooooooo....    ............oooooooooooo",
"oooooooooooooooooooooooooooooooo....    ............oooooooooooo",
"oooooooooooooooooooooooooooooooo....................oooooooooooo",
"oooooooooooooooooooooooooooooooo....................oooooooooooo",
"oooooooooooooooooooooooooooooooo....................oooooooooooo",
"oooooooooooooooooooooooooooooooo....................oooooooooooo",
"oooooooooooooooooooooooooooooooo    ........    ....oooooooooooo",
"oooooooooooooooooooooooooooooooo    ........    ....oooooooooooo",
"oooooooooooooooooooooooooooooooo    ........    ....oooooooooooo",
"oooooooooooooooooooooooooooooooo    ........    ....oooooooooooo",
"oooooooooooooooooooooooooooooooooooo............oooooooooooooooo",
"oooooooooooooooooooooooooooooooooooo............oooooooooooooooo",
"oooooooooooooooooooooooooooooooooooo............oooooooooooooooo",
"oooooooooooooooooooooooooooooooooooo............oooooooooooooooo",
"oooooooooooooooooooooooooooooooooooo++++++++++++oooooooooooooooo",
"oooooooooooooooooooooooooooooooooooo++++++++++++oooooooooooooooo",
"oooooooooooooooooooooooooooooooooooo++++++++++++oooooooooooooooo",
"oooooooooooooooooooooooooooooooooooo++++++++++++oooooooooooooooo",
"oooooooooooooooooooooooooooooooooooooooooooooooooooooooooooooooo",
"oooooooooooooooooooooooooooooooooooooooooooooooooooooooooooooooo",
"oooooooooooooooooooooooooooooooooooooooooooooooooooooooooooooooo",
"oooooooooooooooooooooooooooooooooooooooooooooooooooooooooooooooo"
};
