/* XPM */
static char *result[] = {
/* columns rows colors chars-per-pixel */
"64 64 2 1 ",
"  c #7BFF30",
". c #65A49B",
/* pixels */
"................................................................",
"................................................................",
"................................................................",
"................................................................",
"................................................................",
"................................................................",
"................................................................",
"................................................................",
"............    ........    ....................................",
"............    ........    ....................................",
"............    ........    ....................................",
"............    ........    ....................................",
"................    ....    ....................................",
"................    ....    ....................................",
"................    ....    ....................................",
"................    ....    ....................................",
"................................................................",
"................................................................",
"................................................................",
"................................................................",
"....................................................    ........",
"....................................................    ........",
"....................................................    ........",
"....................................................    ........",
"........................................................    ....",
"........................................................    ....",
"........................................................    ....",
"........................................................    ....",
"........................................................    ....",
"........................................................    ....",
"........................................................    ....",
"........................................................    ....",
"................................................................",
"................................................................",
"................................................................",
"................................................................",
"................................................................",
"................................................................",
"................................................................",
"................................................................",
"................................................................",
"................................................................",
"................................................................",
"................................................................",
"................    ............    ............................",
"................    ............    ............................",
"................    ............    ............................",
"................    ............    ............................",
"....................    ....    ....    ........................",
"....................    ....    ....    ........................",
"....................    ....    ....    ........................",
"....................    ....    ....    ........................",
"....................    ........    ............................",
"....................    ........    ............................",
"....................    ........    ............................",
"....................    ........    ............................",
"....................    ........    ............................",
"....................    ........    ............................",
"....................    ........    ............................",
"....................    ........    ............................",
"................................................................",
"................................................................",
"................................................................",
"................................................................"
};
