/* XPM */
static char *result[] = {
/* columns rows colors chars-per-pixel */
"64 64 4 1 ",
"  c #7D4900",
". c #846B29",
"X c #008486",
"o c #65A49B",
/* pixels */
"oooooooooooooooooooooooooooooooooooooooooooooooooooooooooooooooo",
"oooooooooooooooooooooooooooooooooooooooooooooooooooooooooooooooo",
"oooooooooooooooooooooooooooooooooooooooooooooooooooooooooooooooo",
"oooooooooooooooooooooooooooooooooooooooooooooooooooooooooooooooo",
"oooooooooooooooooooooooooooooooooooooooooooooooooooooooooooooooo",
"oooooooooooooooooooooooooooooooooooooooooooooooooooooooooooooooo",
"oooooooooooooooooooooooooooooooooooooooooooooooooooooooooooooooo",
"oooooooooooooooooooooooooooooooooooooooooooooooooooooooooooooooo",
"oooooooooooooooooooooooooooooooooooooooooooooooooooooooooooooooo",
"oooooooooooooooooooooooooooooooooooooooooooooooooooooooooooooooo",
"oooooooooooooooooooooooooooooooooooooooooooooooooooooooooooooooo",
"oooooooooooooooooooooooooooooooooooooooooooooooooooooooooooooooo",
"oooooooooooooooooooooooooooooooooooooooooooooooooooooooooooooooo",
"oooooooooooooooooooooooooooooooooooooooooooooooooooooooooooooooo",
"oooooooooooooooooooooooooooooooooooooooooooooooooooooooooooooooo",
"oooooooooooooooooooooooooooooooooooooooooooooooooooooooooooooooo",
"oooooooooooooooooooooooooooooooooooooooooooooooooooooooooooooooo",
"oooooooooooooooooooooooooooooooooooooooooooooooooooooooooooooooo",
"oooooooooooooooooooooooooooooooooooooooooooooooooooooooooooooooo",
"oooooooooooooooooooooooooooooooooooooooooooooooooooooooooooooooo",
"oooooooooooooooooooooooooooooooooooooooooooooooooooooooooooooooo",
"oooooooooooooooooooooooooooooooooooooooooooooooooooooooooooooooo",
"oooooooooooooooooooooooooooooooooooooooooooooooooooooooooooooooo",
"oooooooooooooooooooooooooooooooooooooooooooooooooooooooooooooooo",
"oooooooooooooooooooooooooooooooooooooooooooooooooooooooooooooooo",
"oooooooooooooooooooooooooooooooooooooooooooooooooooooooooooooooo",
"oooooooooooooooooooooooooooooooooooooooooooooooooooooooooooooooo",
"oooooooooooooooooooooooooooooooooooooooooooooooooooooooooooooooo",
"....ooooXXXXooooooooooooooooooooXXXXoooooooooooo....ooooXXXXoooo",
"....ooooXXXXooooooooooooooooooooXXXXoooooooooooo....ooooXXXXoooo",
"....ooooXXXXooooooooooooooooooooXXXXoooooooooooo....ooooXXXXoooo",
"....ooooXXXXooooooooooooooooooooXXXXoooooooooooo....ooooXXXXoooo",
"oooo................oooo....oooo........................oooo....",
"oooo................oooo....oooo........................oooo....",
"oooo................oooo....oooo........................oooo....",
"oooo................oooo....oooo........................oooo....",
"                ....    ....                        ....        ",
"                ....    ....                        ....        ",
"                ....    ....                        ....        ",
"                ....    ....                        ....        ",
"    ........                    ........    ........            ",
"    ........                    ........    ........            ",
"    ........                    ........    ........            ",
"    ........                    ........    ........            ",
"                                                                ",
"                                                                ",
"                                                                ",
"                                                                ",
"    ........        ........    ........    ....        ....    ",
"    ........        ........    ........    ....        ....    ",
"    ........        ........    ........    ....        ....    ",
"    ........        ........    ........    ....        ....    ",
"        ....    ....                ....            ....    ....",
"        ....    ....                ....            ....    ....",
"        ....    ....                ....            ....    ....",
"        ....    ....                ....            ....    ....",
"............oooo....oooo........oooo............oooo....oooo....",
"............oooo....oooo........oooo............oooo....oooo....",
"............oooo....oooo........oooo............oooo....oooo....",
"............oooo....oooo........oooo............oooo....oooo....",
"XXXXooooooooooooooooooooXXXXooooooooooooooooXXXXoooooooooooooooo",
"XXXXooooooooooooooooooooXXXXooooooooooooooooXXXXoooooooooooooooo",
"XXXXooooooooooooooooooooXXXXooooooooooooooooXXXXoooooooooooooooo",
"XXXXooooooooooooooooooooXXXXooooooooooooooooXXXXoooooooooooooooo"
};
