/* XPM */
static char *result[] = {
/* columns rows colors chars-per-pixel */
"64 64 4 1 ",
"  c gray32",
". c #65A49B",
"X c gray58",
"o c #A5A5A5",
/* pixels */
"................................                    ............",
"................................                    ............",
"................................                    ............",
"................................                    ............",
"............            ....    XXXXXXXXXXXXXXXXoooo    ........",
"............            ....    XXXXXXXXXXXXXXXXoooo    ........",
"............            ....    XXXXXXXXXXXXXXXXoooo    ........",
"............            ....    XXXXXXXXXXXXXXXXoooo    ........",
"........    XXXXooooXXXX    XXXXXXXXooooooooooooXXXX    ........",
"........    XXXXooooXXXX    XXXXXXXXooooooooooooXXXX    ........",
"........    XXXXooooXXXX    XXXXXXXXooooooooooooXXXX    ........",
"........    XXXXooooXXXX    XXXXXXXXooooooooooooXXXX    ........",
"....    XXXXooooooooooooXXXXXXXXooooooooooooooooooooXXXX    ....",
"....    XXXXooooooooooooXXXXXXXXooooooooooooooooooooXXXX    ....",
"....    XXXXooooooooooooXXXXXXXXooooooooooooooooooooXXXX    ....",
"....    XXXXooooooooooooXXXXXXXXooooooooooooooooooooXXXX    ....",
"    XXXXooooooooooooooooooooXXXXooooooooooooooooooooXXXX    ....",
"    XXXXooooooooooooooooooooXXXXooooooooooooooooooooXXXX    ....",
"    XXXXooooooooooooooooooooXXXXooooooooooooooooooooXXXX    ....",
"    XXXXooooooooooooooooooooXXXXooooooooooooooooooooXXXX    ....",
"    XXXXXXXXXXXXXXXXoooooooo    oooo    XXXX    ooooXXXX    ....",
"    XXXXXXXXXXXXXXXXoooooooo    oooo    XXXX    ooooXXXX    ....",
"    XXXXXXXXXXXXXXXXoooooooo    oooo    XXXX    ooooXXXX    ....",
"    XXXXXXXXXXXXXXXXoooooooo    oooo    XXXX    ooooXXXX    ....",
"....        XXXXXXXX        XXXX    ooooooooooooXXXX    ........",
"....        XXXXXXXX        XXXX    ooooooooooooXXXX    ........",
"....        XXXXXXXX        XXXX    ooooooooooooXXXX    ........",
"....        XXXXXXXX        XXXX    ooooooooooooXXXX    ........",
"....    XXXXooooooooXXXX    XXXXooooooooooooooooooooXXXX    ....",
"....    XXXXooooooooXXXX    XXXXooooooooooooooooooooXXXX    ....",
"....    XXXXooooooooXXXX    XXXXooooooooooooooooooooXXXX    ....",
"....    XXXXooooooooXXXX    XXXXooooooooooooooooooooXXXX    ....",
"    XXXXooooooooooooooooXXXXXXXXooooooooooooooooooooooooXXXX    ",
"    XXXXooooooooooooooooXXXXXXXXooooooooooooooooooooooooXXXX    ",
"    XXXXooooooooooooooooXXXXXXXXooooooooooooooooooooooooXXXX    ",
"    XXXXooooooooooooooooXXXXXXXXooooooooooooooooooooooooXXXX    ",
"    XXXXooooooooooooooooooooXXXX    ooooXXXXXXXXooooooooXXXX    ",
"    XXXXooooooooooooooooooooXXXX    ooooXXXXXXXXooooooooXXXX    ",
"    XXXXooooooooooooooooooooXXXX    ooooXXXXXXXXooooooooXXXX    ",
"    XXXXooooooooooooooooooooXXXX    ooooXXXXXXXXooooooooXXXX    ",
"....    XXXX    XXXXXXXXXXXX    XXXX            XXXXXXXXXXXX    ",
"....    XXXX    XXXXXXXXXXXX    XXXX            XXXXXXXXXXXX    ",
"....    XXXX    XXXXXXXXXXXX    XXXX            XXXXXXXXXXXX    ",
"....    XXXX    XXXXXXXXXXXX    XXXX            XXXXXXXXXXXX    ",
"....        ooooooooXXXX            XXXXooooooooooooXXXX    ....",
"....        ooooooooXXXX            XXXXooooooooooooXXXX    ....",
"....        ooooooooXXXX            XXXXooooooooooooXXXX    ....",
"....        ooooooooXXXX            XXXXooooooooooooXXXX    ....",
"    XXXXooooooooooooooooXXXX    XXXXooooooooooooooooooooXXXX    ",
"    XXXXooooooooooooooooXXXX    XXXXooooooooooooooooooooXXXX    ",
"    XXXXooooooooooooooooXXXX    XXXXooooooooooooooooooooXXXX    ",
"    XXXXooooooooooooooooXXXX    XXXXooooooooooooooooooooXXXX    ",
"    XXXXoooooooooooooooooooo    XXXXooooooooooooooooooooXXXX    ",
"    XXXXoooooooooooooooooooo    XXXXooooooooooooooooooooXXXX    ",
"    XXXXoooooooooooooooooooo    XXXXooooooooooooooooooooXXXX    ",
"    XXXXoooooooooooooooooooo    XXXXooooooooooooooooooooXXXX    ",
"....    XXXXooooooooXXXXoooo    XXXX    ooooXXXXXXXXooooXXXX    ",
"....    XXXXooooooooXXXXoooo    XXXX    ooooXXXXXXXXooooXXXX    ",
"....    XXXXooooooooXXXXoooo    XXXX    ooooXXXXXXXXooooXXXX    ",
"....    XXXXooooooooXXXXoooo    XXXX    ooooXXXXXXXXooooXXXX    ",
"....                        ....                            ....",
"....                        ....                            ....",
"....                        ....                            ....",
"....                        ....                            ...."
};
