/* XPM */
static char *result[] = {
/* columns rows colors chars-per-pixel */
"64 64 4 1 ",
"  c gray32",
". c #65A49B",
"X c gray58",
"o c #A5A5A5",
/* pixels */
"............                        ............................",
"............                        ............................",
"............                        ............................",
"............                        ............................",
"........    XXXXXXXXXXXXoooooooooooo            ................",
"........    XXXXXXXXXXXXoooooooooooo            ................",
"........    XXXXXXXXXXXXoooooooooooo            ................",
"........    XXXXXXXXXXXXoooooooooooo            ................",
"........    XXXXoooooooooooooooo    XXXXoooooooo    ............",
"........    XXXXoooooooooooooooo    XXXXoooooooo    ............",
"........    XXXXoooooooooooooooo    XXXXoooooooo    ............",
"........    XXXXoooooooooooooooo    XXXXoooooooo    ............",
"        XXXX                    XXXXoooooooooooooooo        ....",
"        XXXX                    XXXXoooooooooooooooo        ....",
"        XXXX                    XXXXoooooooooooooooo        ....",
"        XXXX                    XXXXoooooooooooooooo        ....",
"ooooXXXX    XXXXXXXXXXXXXXXXXXXX    XXXX            XXXXoooo    ",
"ooooXXXX    XXXXXXXXXXXXXXXXXXXX    XXXX            XXXXoooo    ",
"ooooXXXX    XXXXXXXXXXXXXXXXXXXX    XXXX            XXXXoooo    ",
"ooooXXXX    XXXXXXXXXXXXXXXXXXXX    XXXX            XXXXoooo    ",
"ooooXXXX    XXXXooooooooooooooooXXXX    XXXXXXXXoooo    XXXX    ",
"ooooXXXX    XXXXooooooooooooooooXXXX    XXXXXXXXoooo    XXXX    ",
"ooooXXXX    XXXXooooooooooooooooXXXX    XXXXXXXXoooo    XXXX    ",
"ooooXXXX    XXXXooooooooooooooooXXXX    XXXXXXXXoooo    XXXX    ",
"oooo    XXXXXXXXooooooooooooooooooooXXXXXXXXoooooooooooo    ....",
"oooo    XXXXXXXXooooooooooooooooooooXXXXXXXXoooooooooooo    ....",
"oooo    XXXXXXXXooooooooooooooooooooXXXXXXXXoooooooooooo    ....",
"oooo    XXXXXXXXooooooooooooooooooooXXXXXXXXoooooooooooo    ....",
"XXXX    XXXXooooooooooooooooooooooooXXXXooooooooooooooooXXXX    ",
"XXXX    XXXXooooooooooooooooooooooooXXXXooooooooooooooooXXXX    ",
"XXXX    XXXXooooooooooooooooooooooooXXXXooooooooooooooooXXXX    ",
"XXXX    XXXXooooooooooooooooooooooooXXXXooooooooooooooooXXXX    ",
"XXXX    XXXXXXXX    XXXX    oooo    XXXXooooooooooooXXXXXXXX    ",
"XXXX    XXXXXXXX    XXXX    oooo    XXXXooooooooooooXXXXXXXX    ",
"XXXX    XXXXXXXX    XXXX    oooo    XXXXooooooooooooXXXXXXXX    ",
"XXXX    XXXXXXXX    XXXX    oooo    XXXXooooooooooooXXXXXXXX    ",
"XXXX    XXXXooooooooooooXXXX            XXXXoooooooo        ....",
"XXXX    XXXXooooooooooooXXXX            XXXXoooooooo        ....",
"XXXX    XXXXooooooooooooXXXX            XXXXoooooooo        ....",
"XXXX    XXXXooooooooooooXXXX            XXXXoooooooo        ....",
"    XXXXoooooooooooooooooooooooo    XXXXoooooooooooooooooooo    ",
"    XXXXoooooooooooooooooooooooo    XXXXoooooooooooooooooooo    ",
"    XXXXoooooooooooooooooooooooo    XXXXoooooooooooooooooooo    ",
"    XXXXoooooooooooooooooooooooo    XXXXoooooooooooooooooooo    ",
"    XXXXoooooooooooooooooooooooo    XXXXoooooooooooooooooooo    ",
"    XXXXoooooooooooooooooooooooo    XXXXoooooooooooooooooooo    ",
"    XXXXoooooooooooooooooooooooo    XXXXoooooooooooooooooooo    ",
"    XXXXoooooooooooooooooooooooo    XXXXoooooooooooooooooooo    ",
"    XXXXooooXXXXXXXXoooo    XXXX    XXXXXXXXooooooooXXXX    ....",
"    XXXXooooXXXXXXXXoooo    XXXX    XXXXXXXXooooooooXXXX    ....",
"    XXXXooooXXXXXXXXoooo    XXXX    XXXXXXXXooooooooXXXX    ....",
"    XXXXooooXXXXXXXXoooo    XXXX    XXXXXXXXooooooooXXXX    ....",
"....                            XXXX                        ....",
"....                            XXXX                        ....",
"....                            XXXX                        ....",
"....                            XXXX                        ....",
"................    XXXXXXXXooooooooXXXX    ....................",
"................    XXXXXXXXooooooooXXXX    ....................",
"................    XXXXXXXXooooooooXXXX    ....................",
"................    XXXXXXXXooooooooXXXX    ....................",
"....................                    ........................",
"....................                    ........................",
"....................                    ........................",
"....................                    ........................"
};
