/* XPM */
static char *result[] = {
/* columns rows colors chars-per-pixel */
"64 64 4 1 ",
"  c gray32",
". c #65A49B",
"X c gray58",
"o c #A5A5A5",
/* pixels */
"............................                        ............",
"............................                        ............",
"............................                        ............",
"............................                        ............",
"................            XXXXXXXXXXXXoooooooooooo    ........",
"................            XXXXXXXXXXXXoooooooooooo    ........",
"................            XXXXXXXXXXXXoooooooooooo    ........",
"................            XXXXXXXXXXXXoooooooooooo    ........",
"............    XXXXXXXXoooo    XXXXoooooooooooooooo    ........",
"............    XXXXXXXXoooo    XXXXoooooooooooooooo    ........",
"............    XXXXXXXXoooo    XXXXoooooooooooooooo    ........",
"............    XXXXXXXXoooo    XXXXoooooooooooooooo    ........",
"....        XXXXoooooooooooooooo                    XXXX        ",
"....        XXXXoooooooooooooooo                    XXXX        ",
"....        XXXXoooooooooooooooo                    XXXX        ",
"....        XXXXoooooooooooooooo                    XXXX        ",
"    ooooXXXX            XXXX    XXXXXXXXXXXXXXXXoooo    XXXXXXXX",
"    ooooXXXX            XXXX    XXXXXXXXXXXXXXXXoooo    XXXXXXXX",
"    ooooXXXX            XXXX    XXXXXXXXXXXXXXXXoooo    XXXXXXXX",
"    ooooXXXX            XXXX    XXXXXXXXXXXXXXXXoooo    XXXXXXXX",
"    XXXX    XXXXooooXXXX    XXXXXXXXooooooooooooXXXX    XXXXoooo",
"    XXXX    XXXXooooXXXX    XXXXXXXXooooooooooooXXXX    XXXXoooo",
"    XXXX    XXXXooooXXXX    XXXXXXXXooooooooooooXXXX    XXXXoooo",
"    XXXX    XXXXooooXXXX    XXXXXXXXooooooooooooXXXX    XXXXoooo",
"....    XXXXooooooooooooXXXXXXXXooooooooooooooooooooXXXX    oooo",
"....    XXXXooooooooooooXXXXXXXXooooooooooooooooooooXXXX    oooo",
"....    XXXXooooooooooooXXXXXXXXooooooooooooooooooooXXXX    oooo",
"....    XXXXooooooooooooXXXXXXXXooooooooooooooooooooXXXX    oooo",
"    XXXXooooooooooooooooooooXXXXooooooooooooooooooooXXXX    XXXX",
"    XXXXooooooooooooooooooooXXXXooooooooooooooooooooXXXX    XXXX",
"    XXXXooooooooooooooooooooXXXXooooooooooooooooooooXXXX    XXXX",
"    XXXXooooooooooooooooooooXXXXooooooooooooooooooooXXXX    XXXX",
"    XXXXXXXXXXXXXXXXoooooooo    oooo    XXXX    ooooXXXX    XXXX",
"    XXXXXXXXXXXXXXXXoooooooo    oooo    XXXX    ooooXXXX    XXXX",
"    XXXXXXXXXXXXXXXXoooooooo    oooo    XXXX    ooooXXXX    XXXX",
"    XXXXXXXXXXXXXXXXoooooooo    oooo    XXXX    ooooXXXX    XXXX",
"....        ooooooooXXXX            XXXXooooooooooooXXXX    XXXX",
"....        ooooooooXXXX            XXXXooooooooooooXXXX    XXXX",
"....        ooooooooXXXX            XXXXooooooooooooXXXX    XXXX",
"....        ooooooooXXXX            XXXXooooooooooooXXXX    XXXX",
"    XXXXooooooooooooooooXXXX    XXXXooooooooooooooooooooXXXX    ",
"    XXXXooooooooooooooooXXXX    XXXXooooooooooooooooooooXXXX    ",
"    XXXXooooooooooooooooXXXX    XXXXooooooooooooooooooooXXXX    ",
"    XXXXooooooooooooooooXXXX    XXXXooooooooooooooooooooXXXX    ",
"    XXXXoooooooooooooooooooo    XXXXooooooooooooooooooooXXXX    ",
"    XXXXoooooooooooooooooooo    XXXXooooooooooooooooooooXXXX    ",
"    XXXXoooooooooooooooooooo    XXXXooooooooooooooooooooXXXX    ",
"    XXXXoooooooooooooooooooo    XXXXooooooooooooooooooooXXXX    ",
"....    XXXXooooooooXXXXoooo    XXXX    ooooXXXXXXXXooooXXXX    ",
"....    XXXXooooooooXXXXoooo    XXXX    ooooXXXXXXXXooooXXXX    ",
"....    XXXXooooooooXXXXoooo    XXXX    ooooXXXXXXXXooooXXXX    ",
"....    XXXXooooooooXXXXoooo    XXXX    ooooXXXXXXXXooooXXXX    ",
"....                        XXXX                            ....",
"....                        XXXX                            ....",
"....                        XXXX                            ....",
"....                        XXXX                            ....",
"............    XXXXXXXXXXXXooooooooooooooooXXXX    ............",
"............    XXXXXXXXXXXXooooooooooooooooXXXX    ............",
"............    XXXXXXXXXXXXooooooooooooooooXXXX    ............",
"............    XXXXXXXXXXXXooooooooooooooooXXXX    ............",
"................                                ................",
"................                                ................",
"................                                ................",
"................                                ................"
};
