/* XPM */
static char *result[] = {
/* columns rows colors chars-per-pixel */
"64 64 4 1 ",
"  c gray32",
". c #65A49B",
"X c gray58",
"o c #A5A5A5",
/* pixels */
"................................................................",
"................................................................",
"................................................................",
"................................................................",
"................            ....................................",
"................            ....................................",
"................            ....................................",
"................            ....................................",
"    ........    XXXXoooooooo    ................................",
"    ........    XXXXoooooooo    ................................",
"    ........    XXXXoooooooo    ................................",
"    ........    XXXXoooooooo    ................................",
"XXXX        XXXXoooooooooooooooo                    ....        ",
"XXXX        XXXXoooooooooooooooo                    ....        ",
"XXXX        XXXXoooooooooooooooo                    ....        ",
"XXXX        XXXXoooooooooooooooo                    ....        ",
"ooooooooXXXX            XXXX    XXXXXXXXXXXXXXXXoooo    XXXXXXXX",
"ooooooooXXXX            XXXX    XXXXXXXXXXXXXXXXoooo    XXXXXXXX",
"ooooooooXXXX            XXXX    XXXXXXXXXXXXXXXXoooo    XXXXXXXX",
"ooooooooXXXX            XXXX    XXXXXXXXXXXXXXXXoooo    XXXXXXXX",
"ooooXXXX    XXXXooooXXXX    XXXXXXXXooooooooooooXXXX    XXXXoooo",
"ooooXXXX    XXXXooooXXXX    XXXXXXXXooooooooooooXXXX    XXXXoooo",
"ooooXXXX    XXXXooooXXXX    XXXXXXXXooooooooooooXXXX    XXXXoooo",
"ooooXXXX    XXXXooooXXXX    XXXXXXXXooooooooooooXXXX    XXXXoooo",
"XXXX    XXXXooooooooooooXXXXXXXXooooooooooooooooooooXXXX    oooo",
"XXXX    XXXXooooooooooooXXXXXXXXooooooooooooooooooooXXXX    oooo",
"XXXX    XXXXooooooooooooXXXXXXXXooooooooooooooooooooXXXX    oooo",
"XXXX    XXXXooooooooooooXXXXXXXXooooooooooooooooooooXXXX    oooo",
"    XXXXooooooooooooooooooooXXXXooooooooooooooooooooXXXX    XXXX",
"    XXXXooooooooooooooooooooXXXXooooooooooooooooooooXXXX    XXXX",
"    XXXXooooooooooooooooooooXXXXooooooooooooooooooooXXXX    XXXX",
"    XXXXooooooooooooooooooooXXXXooooooooooooooooooooXXXX    XXXX",
"    XXXXXXXXXXXXXXXXoooooooo    oooo    XXXX    ooooXXXX    XXXX",
"    XXXXXXXXXXXXXXXXoooooooo    oooo    XXXX    ooooXXXX    XXXX",
"    XXXXXXXXXXXXXXXXoooooooo    oooo    XXXX    ooooXXXX    XXXX",
"    XXXXXXXXXXXXXXXXoooooooo    oooo    XXXX    ooooXXXX    XXXX",
"XXXX        ooooooooXXXX            XXXXooooooooooooXXXX    XXXX",
"XXXX        ooooooooXXXX            XXXXooooooooooooXXXX    XXXX",
"XXXX        ooooooooXXXX            XXXXooooooooooooXXXX    XXXX",
"XXXX        ooooooooXXXX            XXXXooooooooooooXXXX    XXXX",
"    XXXXooooooooooooooooXXXX    XXXXooooooooooooooooooooXXXX    ",
"    XXXXooooooooooooooooXXXX    XXXXooooooooooooooooooooXXXX    ",
"    XXXXooooooooooooooooXXXX    XXXXooooooooooooooooooooXXXX    ",
"    XXXXooooooooooooooooXXXX    XXXXooooooooooooooooooooXXXX    ",
"    XXXXoooooooooooooooooooo    XXXXooooooooooooooooooooXXXX    ",
"    XXXXoooooooooooooooooooo    XXXXooooooooooooooooooooXXXX    ",
"    XXXXoooooooooooooooooooo    XXXXooooooooooooooooooooXXXX    ",
"    XXXXoooooooooooooooooooo    XXXXooooooooooooooooooooXXXX    ",
"....    XXXXooooooooXXXXoooo    XXXX    ooooXXXXXXXXooooXXXX    ",
"....    XXXXooooooooXXXXoooo    XXXX    ooooXXXXXXXXooooXXXX    ",
"....    XXXXooooooooXXXXoooo    XXXX    ooooXXXXXXXXooooXXXX    ",
"....    XXXXooooooooXXXXoooo    XXXX    ooooXXXXXXXXooooXXXX    ",
"....                        ....                            ....",
"....                        ....                            ....",
"....                        ....                            ....",
"....                        ....                            ....",
"................................................................",
"................................................................",
"................................................................",
"................................................................",
"................................................................",
"................................................................",
"................................................................",
"................................................................"
};
