/* XPM */
static char *result[] = {
/* columns rows colors chars-per-pixel */
"64 64 8 1 ",
"  c #003800",
". c #005D00",
"X c #007000",
"o c #7D4900",
"O c #846B29",
"+ c #008300",
"@ c #65A49B",
"# c #A5A5A5",
/* pixels */
"@@@@@@@@@@@@@@@@@@@@@@@@@@@@@@@@@@@@@@@@@@@@@@@@@@@@@@@@@@@@@@@@",
"@@@@@@@@@@@@@@@@@@@@@@@@@@@@@@@@@@@@@@@@@@@@@@@@@@@@@@@@@@@@@@@@",
"@@@@@@@@@@@@@@@@@@@@@@@@@@@@@@@@@@@@@@@@@@@@@@@@@@@@@@@@@@@@@@@@",
"@@@@@@@@@@@@@@@@@@@@@@@@@@@@@@@@@@@@@@@@@@@@@@@@@@@@@@@@@@@@@@@@",
"@@@@@@@@@@@@@@@@@@@@@@@@@@@@@@@@@@@@@@@@@@@@@@@@@@@@@@@@@@@@@@@@",
"@@@@@@@@@@@@@@@@@@@@@@@@@@@@@@@@@@@@@@@@@@@@@@@@@@@@@@@@@@@@@@@@",
"@@@@@@@@@@@@@@@@@@@@@@@@@@@@@@@@@@@@@@@@@@@@@@@@@@@@@@@@@@@@@@@@",
"@@@@@@@@@@@@@@@@@@@@@@@@@@@@@@@@@@@@@@@@@@@@@@@@@@@@@@@@@@@@@@@@",
"@@@@@@@@@@@@@@@@@@@@@@@@@@@@@@@@@@@@@@@@@@@@@@@@@@@@@@@@@@@@@@@@",
"@@@@@@@@@@@@@@@@@@@@@@@@@@@@@@@@@@@@@@@@@@@@@@@@@@@@@@@@@@@@@@@@",
"@@@@@@@@@@@@@@@@@@@@@@@@@@@@@@@@@@@@@@@@@@@@@@@@@@@@@@@@@@@@@@@@",
"@@@@@@@@@@@@@@@@@@@@@@@@@@@@@@@@@@@@@@@@@@@@@@@@@@@@@@@@@@@@@@@@",
"@@@@@@@@@@@@@@@@@@@@............@@@@@@@@@@@@@@@@@@@@@@@@@@@@@@@@",
"@@@@@@@@@@@@@@@@@@@@............@@@@@@@@@@@@@@@@@@@@@@@@@@@@@@@@",
"@@@@@@@@@@@@@@@@@@@@............@@@@@@@@@@@@@@@@@@@@@@@@@@@@@@@@",
"@@@@@@@@@@@@@@@@@@@@............@@@@@@@@@@@@@@@@@@@@@@@@@@@@@@@@",
"@@@@@@@@@@@@@@@@@@@@....++++....................@@@@@@@@@@@@@@@@",
"@@@@@@@@@@@@@@@@@@@@....++++....................@@@@@@@@@@@@@@@@",
"@@@@@@@@@@@@@@@@@@@@....++++....................@@@@@@@@@@@@@@@@",
"@@@@@@@@@@@@@@@@@@@@....++++....................@@@@@@@@@@@@@@@@",
"@@@@@@@@@@@@@@@@@@@@....++++........@@@@@@@@....@@@@@@@@@@@@@@@@",
"@@@@@@@@@@@@@@@@@@@@....++++........@@@@@@@@....@@@@@@@@@@@@@@@@",
"@@@@@@@@@@@@@@@@@@@@....++++........@@@@@@@@....@@@@@@@@@@@@@@@@",
"@@@@@@@@@@@@@@@@@@@@....++++........@@@@@@@@....@@@@@@@@@@@@@@@@",
"@@@@@@@@@@@@@@@@@@@@    ........................@@@@@@@@@@@@@@@@",
"@@@@@@@@@@@@@@@@@@@@    ........................@@@@@@@@@@@@@@@@",
"@@@@@@@@@@@@@@@@@@@@    ........................@@@@@@@@@@@@@@@@",
"@@@@@@@@@@@@@@@@@@@@    ........................@@@@@@@@@@@@@@@@",
"@@@@@@@@@@@@@@@@....                ................XXXX++++@@@@",
"@@@@@@@@@@@@@@@@....                ................XXXX++++@@@@",
"@@@@@@@@@@@@@@@@....                ................XXXX++++@@@@",
"@@@@@@@@@@@@@@@@....                ................XXXX++++@@@@",
"@@@@@@@@@@@@....++++                            XXXX++++....OOOO",
"@@@@@@@@@@@@....++++                            XXXX++++....OOOO",
"@@@@@@@@@@@@....++++                            XXXX++++....OOOO",
"@@@@@@@@@@@@....++++                            XXXX++++....OOOO",
"@@@@@@@@....++++XXXX++++XXXX++++++++XXXX++++XXXX++++....XXXXoooo",
"@@@@@@@@....++++XXXX++++XXXX++++++++XXXX++++XXXX++++....XXXXoooo",
"@@@@@@@@....++++XXXX++++XXXX++++++++XXXX++++XXXX++++....XXXXoooo",
"@@@@@@@@....++++XXXX++++XXXX++++++++XXXX++++XXXX++++....XXXXoooo",
"OOOOOOOO........########............########........####XXXXoooo",
"OOOOOOOO........########............########........####XXXXoooo",
"OOOOOOOO........########............########........####XXXXoooo",
"OOOOOOOO........########............########........####XXXXoooo",
"@@@@OOOOXXXX....XXXX....XXXXXXXX....XXXX....XXXX....XXXXXXXXoooo",
"@@@@OOOOXXXX....XXXX....XXXXXXXX....XXXX....XXXX....XXXXXXXXoooo",
"@@@@OOOOXXXX....XXXX....XXXXXXXX....XXXX....XXXX....XXXXXXXXoooo",
"@@@@OOOOXXXX....XXXX....XXXXXXXX....XXXX....XXXX....XXXXXXXXoooo",
"@@@@ooooXXXX....XXXX....XXXXXXXX....XXXX....XXXX....XXXXooooOOOO",
"@@@@ooooXXXX....XXXX....XXXXXXXX....XXXX....XXXX....XXXXooooOOOO",
"@@@@ooooXXXX....XXXX....XXXXXXXX....XXXX....XXXX....XXXXooooOOOO",
"@@@@ooooXXXX....XXXX....XXXXXXXX....XXXX....XXXX....XXXXooooOOOO",
"@@@@ooooXXXX....XXXX....XXXXXXXX....XXXX....XXXX....ooooOOOO@@@@",
"@@@@ooooXXXX....XXXX....XXXXXXXX....XXXX....XXXX....ooooOOOO@@@@",
"@@@@ooooXXXX....XXXX....XXXXXXXX....XXXX....XXXX....ooooOOOO@@@@",
"@@@@ooooXXXX....XXXX....XXXXXXXX....XXXX....XXXX....ooooOOOO@@@@",
"OOOOOOOOooooOOOOooooooooooooOOOOooooOOOOOOOOOOOOooooOOOOOOOO@@@@",
"OOOOOOOOooooOOOOooooooooooooOOOOooooOOOOOOOOOOOOooooOOOOOOOO@@@@",
"OOOOOOOOooooOOOOooooooooooooOOOOooooOOOOOOOOOOOOooooOOOOOOOO@@@@",
"OOOOOOOOooooOOOOooooooooooooOOOOooooOOOOOOOOOOOOooooOOOOOOOO@@@@",
"@@@@@@@@@@@@@@@@OOOO@@@@@@@@@@@@OOOO@@@@@@@@@@@@@@@@OOOO@@@@@@@@",
"@@@@@@@@@@@@@@@@OOOO@@@@@@@@@@@@OOOO@@@@@@@@@@@@@@@@OOOO@@@@@@@@",
"@@@@@@@@@@@@@@@@OOOO@@@@@@@@@@@@OOOO@@@@@@@@@@@@@@@@OOOO@@@@@@@@",
"@@@@@@@@@@@@@@@@OOOO@@@@@@@@@@@@OOOO@@@@@@@@@@@@@@@@OOOO@@@@@@@@"
};
