/* XPM */
static char *result[] = {
/* columns rows colors chars-per-pixel */
"64 64 14 1 ",
"  c #101413",
". c #191E1C",
"X c #212826",
"o c #29322F",
"O c #323C39",
"+ c #48514F",
"@ c #595652",
"# c #5D5F5F",
"$ c #696A6A",
"% c red",
"& c #1B00FF",
"* c #8C8F8E",
"= c white",
"- c None",
/* pixels */
"----------------------------------------------------------------",
"----------------------------------------------------------------",
"----------------------------------------------------------------",
"----------------------------------------------------------------",
"----------------------------------------------------------------",
"----------------------------------------------------------------",
"----------------------------------------------------------------",
"----------------------------------------------------------------",
"------------------------------------****----****----------------",
"------------------------------------****----****----------------",
"------------------------------------****----****----------------",
"------------------------------------****----****----------------",
"----------------------------++++OOOOOOOO****########------------",
"----------------------------++++OOOOOOOO****########------------",
"----------------------------++++OOOOOOOO****########------------",
"----------------------------++++OOOOOOOO****########------------",
"------------------------++++OOOOOOOOoooo####----XXXX============",
"------------------------++++OOOOOOOOoooo####----XXXX============",
"------------------------++++OOOOOOOOoooo####----XXXX============",
"------------------------++++OOOOOOOOoooo####----XXXX============",
"--------------------++++OOOOOOOOOOOOooooXXXX----....&&&&&&&&&&&&",
"--------------------++++OOOOOOOOOOOOooooXXXX----....&&&&&&&&&&&&",
"--------------------++++OOOOOOOOOOOOooooXXXX----....&&&&&&&&&&&&",
"--------------------++++OOOOOOOOOOOOooooXXXX----....&&&&&&&&&&&&",
"--------------------ooooXXXXXXXXOOOOooooXXXX----....%%%%%%%%%%%%",
"--------------------ooooXXXXXXXXOOOOooooXXXX----....%%%%%%%%%%%%",
"--------------------ooooXXXXXXXXOOOOooooXXXX----....%%%%%%%%%%%%",
"--------------------ooooXXXXXXXXOOOOooooXXXX----....%%%%%%%%%%%%",
"++++++++++++++++++++OOOOOOOOOOOOOOOOooooXXXX----....------------",
"++++++++++++++++++++OOOOOOOOOOOOOOOOooooXXXX----....------------",
"++++++++++++++++++++OOOOOOOOOOOOOOOOooooXXXX----....------------",
"++++++++++++++++++++OOOOOOOOOOOOOOOOooooXXXX----....------------",
"    OOOOOOOOOOOOOOOOOOOOOOOOOOOOooooooooXXXX----....------------",
"    OOOOOOOOOOOOOOOOOOOOOOOOOOOOooooooooXXXX----....------------",
"    OOOOOOOOOOOOOOOOOOOOOOOOOOOOooooooooXXXX----....------------",
"    OOOOOOOOOOOOOOOOOOOOOOOOOOOOooooooooXXXX----....------------",
"------------++++++++OOOOOOOOOOOOOOOOOOOOOOOOOOOOOOOOOOOOOOOO----",
"------------++++++++OOOOOOOOOOOOOOOOOOOOOOOOOOOOOOOOOOOOOOOO----",
"------------++++++++OOOOOOOOOOOOOOOOOOOOOOOOOOOOOOOOOOOOOOOO----",
"------------++++++++OOOOOOOOOOOOOOOOOOOOOOOOOOOOOOOOOOOOOOOO----",
"--------++++++++OOOOOOOOOOOOOOOOOOOOOOOOOOOOOOOOOOOOOOOOOOOOoooo",
"--------++++++++OOOOOOOOOOOOOOOOOOOOOOOOOOOOOOOOOOOOOOOOOOOOoooo",
"--------++++++++OOOOOOOOOOOOOOOOOOOOOOOOOOOOOOOOOOOOOOOOOOOOoooo",
"--------++++++++OOOOOOOOOOOOOOOOOOOOOOOOOOOOOOOOOOOOOOOOOOOOoooo",
"----++++++++OOOOOOOOOOOOOOOOOOOOOOOOOOOOOOOOOOOOOOOOOOOOOOOOoooo",
"----++++++++OOOOOOOOOOOOOOOOOOOOOOOOOOOOOOOOOOOOOOOOOOOOOOOOoooo",
"----++++++++OOOOOOOOOOOOOOOOOOOOOOOOOOOOOOOOOOOOOOOOOOOOOOOOoooo",
"----++++++++OOOOOOOOOOOOOOOOOOOOOOOOOOOOOOOOOOOOOOOOOOOOOOOOoooo",
"----++++OOOOOOOOOOOOOOOOOOOOOOOOOOOOOOOOOOOOOOOOOOOOOOOOOOOOoooo",
"----++++OOOOOOOOOOOOOOOOOOOOOOOOOOOOOOOOOOOOOOOOOOOOOOOOOOOOoooo",
"----++++OOOOOOOOOOOOOOOOOOOOOOOOOOOOOOOOOOOOOOOOOOOOOOOOOOOOoooo",
"----++++OOOOOOOOOOOOOOOOOOOOOOOOOOOOOOOOOOOOOOOOOOOOOOOOOOOOoooo",
"--------ooooooooooooooooooooOOOOooooooooooooooooooooOOOOoooooooo",
"--------ooooooooooooooooooooOOOOooooooooooooooooooooOOOOoooooooo",
"--------ooooooooooooooooooooOOOOooooooooooooooooooooOOOOoooooooo",
"--------ooooooooooooooooooooOOOOooooooooooooooooooooOOOOoooooooo",
"------------@@@@$$$$@@@@$$$$@@@@@@@@@@@@$$$$@@@@$$$$@@@@@@@@@@@@",
"------------@@@@$$$$@@@@$$$$@@@@@@@@@@@@$$$$@@@@$$$$@@@@@@@@@@@@",
"------------@@@@$$$$@@@@$$$$@@@@@@@@@@@@$$$$@@@@$$$$@@@@@@@@@@@@",
"------------@@@@$$$$@@@@$$$$@@@@@@@@@@@@$$$$@@@@$$$$@@@@@@@@@@@@",
"----------------------------------------------------------------",
"----------------------------------------------------------------",
"----------------------------------------------------------------",
"----------------------------------------------------------------"
};
