/* XPM */
static char *result[] = {
/* columns rows colors chars-per-pixel */
"64 64 12 1 ",
"  c #101413",
". c #191E1C",
"X c #212826",
"o c #29322F",
"O c #323C39",
"+ c #48514F",
"@ c #595652",
"# c #696A6A",
"$ c red",
"% c #1B00FF",
"& c white",
"* c None",
/* pixels */
"****************************************************************",
"****************************************************************",
"****************************************************************",
"****************************************************************",
"****************************************************************",
"****************************************************************",
"****************************************************************",
"****************************************************************",
"****************************************************************",
"****************************************************************",
"****************************************************************",
"****************************************************************",
"****************************OOOO++++****************************",
"****************************OOOO++++****************************",
"****************************OOOO++++****************************",
"****************************OOOO++++****************************",
"&&&&&&&&&&&&....********ooooOOOOOOOO++++************************",
"&&&&&&&&&&&&....********ooooOOOOOOOO++++************************",
"&&&&&&&&&&&&....********ooooOOOOOOOO++++************************",
"&&&&&&&&&&&&....********ooooOOOOOOOO++++************************",
"%%%%%%%%%%%%....****XXXXooooOOOOOOOOOOOO++++********************",
"%%%%%%%%%%%%....****XXXXooooOOOOOOOOOOOO++++********************",
"%%%%%%%%%%%%....****XXXXooooOOOOOOOOOOOO++++********************",
"%%%%%%%%%%%%....****XXXXooooOOOOOOOOOOOO++++********************",
"$$$$$$$$$$$$....****XXXXooooOOOOXXXXXXXXoooo********************",
"$$$$$$$$$$$$....****XXXXooooOOOOXXXXXXXXoooo********************",
"$$$$$$$$$$$$....****XXXXooooOOOOXXXXXXXXoooo********************",
"$$$$$$$$$$$$....****XXXXooooOOOOXXXXXXXXoooo********************",
"************....****XXXXooooOOOOOOOOOOOOOOOO++++++++++++++++++++",
"************....****XXXXooooOOOOOOOOOOOOOOOO++++++++++++++++++++",
"************....****XXXXooooOOOOOOOOOOOOOOOO++++++++++++++++++++",
"************....****XXXXooooOOOOOOOOOOOOOOOO++++++++++++++++++++",
"************....****XXXXooooooooOOOOOOOOOOOOOOOOOOOOOOOOOOOO    ",
"************....****XXXXooooooooOOOOOOOOOOOOOOOOOOOOOOOOOOOO    ",
"************....****XXXXooooooooOOOOOOOOOOOOOOOOOOOOOOOOOOOO    ",
"************....****XXXXooooooooOOOOOOOOOOOOOOOOOOOOOOOOOOOO    ",
"****OOOOOOOOOOOOOOOOOOOOOOOOOOOOOOOOOOOOOOOO++++++++************",
"****OOOOOOOOOOOOOOOOOOOOOOOOOOOOOOOOOOOOOOOO++++++++************",
"****OOOOOOOOOOOOOOOOOOOOOOOOOOOOOOOOOOOOOOOO++++++++************",
"****OOOOOOOOOOOOOOOOOOOOOOOOOOOOOOOOOOOOOOOO++++++++************",
"ooooOOOOOOOOOOOOOOOOOOOOOOOOOOOOOOOOOOOOOOOOOOOO++++++++********",
"ooooOOOOOOOOOOOOOOOOOOOOOOOOOOOOOOOOOOOOOOOOOOOO++++++++********",
"ooooOOOOOOOOOOOOOOOOOOOOOOOOOOOOOOOOOOOOOOOOOOOO++++++++********",
"ooooOOOOOOOOOOOOOOOOOOOOOOOOOOOOOOOOOOOOOOOOOOOO++++++++********",
"ooooOOOOOOOOOOOOOOOOOOOOOOOOOOOOOOOOOOOOOOOOOOOOOOOO++++++++****",
"ooooOOOOOOOOOOOOOOOOOOOOOOOOOOOOOOOOOOOOOOOOOOOOOOOO++++++++****",
"ooooOOOOOOOOOOOOOOOOOOOOOOOOOOOOOOOOOOOOOOOOOOOOOOOO++++++++****",
"ooooOOOOOOOOOOOOOOOOOOOOOOOOOOOOOOOOOOOOOOOOOOOOOOOO++++++++****",
"ooooOOOOOOOOOOOOOOOOOOOOOOOOOOOOOOOOOOOOOOOOOOOOOOOOOOOO++++****",
"ooooOOOOOOOOOOOOOOOOOOOOOOOOOOOOOOOOOOOOOOOOOOOOOOOOOOOO++++****",
"ooooOOOOOOOOOOOOOOOOOOOOOOOOOOOOOOOOOOOOOOOOOOOOOOOOOOOO++++****",
"ooooOOOOOOOOOOOOOOOOOOOOOOOOOOOOOOOOOOOOOOOOOOOOOOOOOOOO++++****",
"ooooOOOOooooooooooooooooooooOOOOoooooooooooooooooooooooo********",
"ooooOOOOooooooooooooooooooooOOOOoooooooooooooooooooooooo********",
"ooooOOOOooooooooooooooooooooOOOOoooooooooooooooooooooooo********",
"ooooOOOOooooooooooooooooooooOOOOoooooooooooooooooooooooo********",
"####@@@@@@@@@@@@####@@@@####@@@@@@@@@@@@####@@@@####************",
"####@@@@@@@@@@@@####@@@@####@@@@@@@@@@@@####@@@@####************",
"####@@@@@@@@@@@@####@@@@####@@@@@@@@@@@@####@@@@####************",
"####@@@@@@@@@@@@####@@@@####@@@@@@@@@@@@####@@@@####************",
"****************************************************************",
"****************************************************************",
"****************************************************************",
"****************************************************************"
};
