/* XPM */
static char *result[] = {
/* columns rows colors chars-per-pixel */
"64 64 9 1 ",
"  c #833100",
". c #FE0000",
"X c #FFDE00",
"o c #FFFF3A",
"O c #FFAD63",
"+ c #0000FE",
"@ c #64A5FF",
"# c #F7C4A5",
"$ c None",
/* pixels */
"$$$$$$$$$$$$$$$$$$$$$$$$$$$$$$$$$$$$$$$$$$$$$$$$$$$$$$$$$$$$$$$$",
"$$$$$$$$$$$$$$$$$$$$$$$$$$$$$$$$$$$$$$$$$$$$$$$$$$$$$$$$$$$$$$$$",
"$$$$$$$$$$$$$$$$$$$$$$$$$$$$$$$$$$$$$$$$$$$$$$$$$$$$$$$$$$$$$$$$",
"$$$$$$$$$$$$$$$$$$$$$$$$$$$$$$$$$$$$$$$$$$$$$$$$$$$$$$$$$$$$$$$$",
"$$$$$$$$$$$$$$$$$$$$$$$$$$$$$$$$$$$$$$$$$$$$$$$$$$$$$$$$$$$$$$$$",
"$$$$$$$$$$$$$$$$$$$$$$$$$$$$$$$$$$$$$$$$$$$$$$$$$$$$$$$$$$$$$$$$",
"$$$$$$$$$$$$$$$$$$$$$$$$$$$$$$$$$$$$$$$$$$$$$$$$$$$$$$$$$$$$$$$$",
"$$$$$$$$$$$$$$$$$$$$$$$$$$$$$$$$$$$$$$$$$$$$$$$$$$$$$$$$$$$$$$$$",
"$$$$$$$$$$$$$$$$$$$$$$$$$$$$$$$$$$$$$$$$$$$$$$$$$$$$$$$$$$$$$$$$",
"$$$$$$$$$$$$$$$$$$$$$$$$$$$$$$$$$$$$$$$$$$$$$$$$$$$$$$$$$$$$$$$$",
"$$$$$$$$$$$$$$$$$$$$$$$$$$$$$$$$$$$$$$$$$$$$$$$$$$$$$$$$$$$$$$$$",
"$$$$$$$$$$$$$$$$$$$$$$$$$$$$$$$$$$$$$$$$$$$$$$$$$$$$$$$$$$$$$$$$",
"$$$$$$$$$$$$$$$$$$$$XXXXoooooooooooo$$$$$$$$$$$$$$$$$$$$$$$$$$$$",
"$$$$$$$$$$$$$$$$$$$$XXXXoooooooooooo$$$$$$$$$$$$$$$$$$$$$$$$$$$$",
"$$$$$$$$$$$$$$$$$$$$XXXXoooooooooooo$$$$$$$$$$$$$$$$$$$$$$$$$$$$",
"$$$$$$$$$$$$$$$$$$$$XXXXoooooooooooo$$$$$$$$$$$$$$$$$$$$$$$$$$$$",
"$$$$$$$$$$$$$$$$XXXXoooooooooooooooooooooooo$$$$$$$$$$$$$$$$$$$$",
"$$$$$$$$$$$$$$$$XXXXoooooooooooooooooooooooo$$$$$$$$$$$$$$$$$$$$",
"$$$$$$$$$$$$$$$$XXXXoooooooooooooooooooooooo$$$$$$$$$$$$$$$$$$$$",
"$$$$$$$$$$$$$$$$XXXXoooooooooooooooooooooooo$$$$$$$$$$$$$$$$$$$$",
"$$$$$$$$$$$$$$$$XXXXooooXXXXXXXXXXXXoooooooo$$$$$$$$$$$$$$$$$$$$",
"$$$$$$$$$$$$$$$$XXXXooooXXXXXXXXXXXXoooooooo$$$$$$$$$$$$$$$$$$$$",
"$$$$$$$$$$$$$$$$XXXXooooXXXXXXXXXXXXoooooooo$$$$$$$$$$$$$$$$$$$$",
"$$$$$$$$$$$$$$$$XXXXooooXXXXXXXXXXXXoooooooo$$$$$$$$$$$$$$$$$$$$",
"$$$$$$$$$$$$XXXXooooXXXX####################oooo$$$$$$$$$$$$$$$$",
"$$$$$$$$$$$$XXXXooooXXXX####################oooo$$$$$$$$$$$$$$$$",
"$$$$$$$$$$$$XXXXooooXXXX####################oooo$$$$$$$$$$$$$$$$",
"$$$$$$$$$$$$XXXXooooXXXX####################oooo$$$$$$$$$$$$$$$$",
"$$$$$$$$$$$$XXXXooooXXXX####oooo####oooo####oooo$$$$$$$$$$$$$$$$",
"$$$$$$$$$$$$XXXXooooXXXX####oooo####oooo####oooo$$$$$$$$$$$$$$$$",
"$$$$$$$$$$$$XXXXooooXXXX####oooo####oooo####oooo$$$$$$$$$$$$$$$$",
"$$$$$$$$$$$$XXXXooooXXXX####oooo####oooo####oooo$$$$$$$$$$$$$$$$",
"$$$$$$$$$$$$++++OOOO########@@@@####@@@@########$$$$$$$$$$$$$$$$",
"$$$$$$$$$$$$++++OOOO########@@@@####@@@@########$$$$$$$$$$$$$$$$",
"$$$$$$$$$$$$++++OOOO########@@@@####@@@@########$$$$$$$$$$$$$$$$",
"$$$$$$$$$$$$++++OOOO########@@@@####@@@@########$$$$$$$$$$$$$$$$",
"$$$$$$$$XXXXooooXXXXOOOO####################$$$$$$$$$$$$$$$$$$$$",
"$$$$$$$$XXXXooooXXXXOOOO####################$$$$$$$$$$$$$$$$$$$$",
"$$$$$$$$XXXXooooXXXXOOOO####################$$$$$$$$$$$$$$$$$$$$",
"$$$$$$$$XXXXooooXXXXOOOO####################$$$$$$$$$$$$$$$$$$$$",
"$$$$$$$$XXXXooooXXXX....OOOOOOOOOOOOOOOO........$$$$$$$$$$$$$$$$",
"$$$$$$$$XXXXooooXXXX....OOOOOOOOOOOOOOOO........$$$$$$$$$$$$$$$$",
"$$$$$$$$XXXXooooXXXX....OOOOOOOOOOOOOOOO........$$$$$$$$$$$$$$$$",
"$$$$$$$$XXXXooooXXXX....OOOOOOOOOOOOOOOO........$$$$$$$$$$$$$$$$",
"$$$$$$$$ooooXXXX............................$$$$....$$$$$$$$$$$$",
"$$$$$$$$ooooXXXX............................$$$$....$$$$$$$$$$$$",
"$$$$$$$$ooooXXXX............................$$$$....$$$$$$$$$$$$",
"$$$$$$$$ooooXXXX............................$$$$....$$$$$$$$$$$$",
"$$$$$$$$ooooXXXX$$$$........................$$$$####$$$$$$$$$$$$",
"$$$$$$$$ooooXXXX$$$$........................$$$$####$$$$$$$$$$$$",
"$$$$$$$$ooooXXXX$$$$........................$$$$####$$$$$$$$$$$$",
"$$$$$$$$ooooXXXX$$$$........................$$$$####$$$$$$$$$$$$",
"$$$$$$$$oooo$$$$$$$$....####............$$$$$$$$$$$$$$$$$$$$$$$$",
"$$$$$$$$oooo$$$$$$$$....####............$$$$$$$$$$$$$$$$$$$$$$$$",
"$$$$$$$$oooo$$$$$$$$....####............$$$$$$$$$$$$$$$$$$$$$$$$",
"$$$$$$$$oooo$$$$$$$$....####............$$$$$$$$$$$$$$$$$$$$$$$$",
"$$$$$$$$$$$$$$$$$$$$        $$$$        $$$$$$$$$$$$$$$$$$$$$$$$",
"$$$$$$$$$$$$$$$$$$$$        $$$$        $$$$$$$$$$$$$$$$$$$$$$$$",
"$$$$$$$$$$$$$$$$$$$$        $$$$        $$$$$$$$$$$$$$$$$$$$$$$$",
"$$$$$$$$$$$$$$$$$$$$        $$$$        $$$$$$$$$$$$$$$$$$$$$$$$",
"$$$$$$$$$$$$$$$$$$$$                        $$$$$$$$$$$$$$$$$$$$",
"$$$$$$$$$$$$$$$$$$$$                        $$$$$$$$$$$$$$$$$$$$",
"$$$$$$$$$$$$$$$$$$$$                        $$$$$$$$$$$$$$$$$$$$",
"$$$$$$$$$$$$$$$$$$$$                        $$$$$$$$$$$$$$$$$$$$"
};
