/* XPM */
static char *result[] = {
/* columns rows colors chars-per-pixel */
"64 64 12 1 ",
"  c #833100",
". c #FE0000",
"X c #FF4200",
"o c #FFDE00",
"O c #FFFF3A",
"+ c #FFAD63",
"@ c #64A5FF",
"# c #FF8E8E",
"$ c #FFF29F",
"% c #F7C4A5",
"& c #FFFFA5",
"* c None",
/* pixels */
"****************************************$$$$********************",
"****************************************$$$$********************",
"****************************************$$$$********************",
"****************************************$$$$********************",
"************************************************************$$$$",
"************************************************************$$$$",
"************************************************************$$$$",
"************************************************************$$$$",
"********************ooooOOOOOOOOOOOOoooo************************",
"********************ooooOOOOOOOOOOOOoooo************************",
"********************ooooOOOOOOOOOOOOoooo************************",
"********************ooooOOOOOOOOOOOOoooo************************",
"****************ooooOOOOOOOO%%%%%%%%OOOO$$$$****ooooXXXX********",
"****************ooooOOOOOOOO%%%%%%%%OOOO$$$$****ooooXXXX********",
"****************ooooOOOOOOOO%%%%%%%%OOOO$$$$****ooooXXXX********",
"****************ooooOOOOOOOO%%%%%%%%OOOO$$$$****ooooXXXX********",
"****************ooooOOOOoooo%%%%%%%%%%%%OOOOooooXXXXoooooooo****",
"****************ooooOOOOoooo%%%%%%%%%%%%OOOOooooXXXXoooooooo****",
"****************ooooOOOOoooo%%%%%%%%%%%%OOOOooooXXXXoooooooo****",
"****************ooooOOOOoooo%%%%%%%%%%%%OOOOooooXXXXoooooooo****",
"************ooooOOOOoooo%%%%OOOO%%%%OOOO%%%%oooooooo$$$$XXXX****",
"************ooooOOOOoooo%%%%OOOO%%%%OOOO%%%%oooooooo$$$$XXXX****",
"************ooooOOOOoooo%%%%OOOO%%%%OOOO%%%%oooooooo$$$$XXXX****",
"************ooooOOOOoooo%%%%OOOO%%%%OOOO%%%%oooooooo$$$$XXXX****",
"********%%%%ooooOOOOoooo%%%%@@@@%%%%@@@@%%%%OOOO&&&&&&&&********",
"********%%%%ooooOOOOoooo%%%%@@@@%%%%@@@@%%%%OOOO&&&&&&&&********",
"********%%%%ooooOOOOoooo%%%%@@@@%%%%@@@@%%%%OOOO&&&&&&&&********",
"********%%%%ooooOOOOoooo%%%%@@@@%%%%@@@@%%%%OOOO&&&&&&&&********",
"************....++++%%%%%%%%%%%%%%%%%%%%$$$$%%%%&&&&%%%%********",
"************....++++%%%%%%%%%%%%%%%%%%%%$$$$%%%%&&&&%%%%********",
"************....++++%%%%%%%%%%%%%%%%%%%%$$$$%%%%&&&&%%%%********",
"************....++++%%%%%%%%%%%%%%%%%%%%$$$$%%%%&&&&%%%%********",
"********ooooOOOO....++++%%%%%%%%%%%%oooo%%%%****####&&&&****oooo",
"********ooooOOOO....++++%%%%%%%%%%%%oooo%%%%****####&&&&****oooo",
"********ooooOOOO....++++%%%%%%%%%%%%oooo%%%%****####&&&&****oooo",
"********ooooOOOO....++++%%%%%%%%%%%%oooo%%%%****####&&&&****oooo",
"********ooooOOOO****....++++++++++++++++........oooo************",
"********ooooOOOO****....++++++++++++++++........oooo************",
"********ooooOOOO****....++++++++++++++++........oooo************",
"********ooooOOOO****....++++++++++++++++........oooo************",
"********OOOOoooo****........................************$$$$****",
"********OOOOoooo****........................************$$$$****",
"********OOOOoooo****........................************$$$$****",
"********OOOOoooo****........................************$$$$****",
"********OOOOoooo****........................****************oooo",
"********OOOOoooo****........................****************oooo",
"********OOOOoooo****........................****************oooo",
"********OOOOoooo****........................****************oooo",
"********OOOO********....................************************",
"********OOOO********....................************************",
"********OOOO********....................************************",
"********OOOO********....................************************",
"********************    ....********....    ********************",
"********************    ....********....    ********************",
"********************    ....********....    ********************",
"********************    ....********....    ********************",
"********************        ********        ********************",
"********************        ********        ********************",
"********************        ********        ********************",
"********************        ********        ********************",
"********************            ****            ****************",
"********************            ****            ****************",
"********************            ****            ****************",
"********************            ****            ****************"
};
