/* XPM */
static char *result[] = {
/* columns rows colors chars-per-pixel */
"64 64 11 1 ",
"  c #833100",
". c #FE0000",
"X c #FF4200",
"o c #FFDE00",
"O c #FFFF3A",
"+ c #FFAD63",
"@ c #64A5FF",
"# c #FFF29F",
"$ c #F7C4A5",
"% c #FFFFA5",
"& c None",
/* pixels */
"&&&&&&&&&&&&&&&&&&&&&&&&&&&&&&&&&&&&&&&&&&&&&&&&&&&&&&&&&&&&&&&&",
"&&&&&&&&&&&&&&&&&&&&&&&&&&&&&&&&&&&&&&&&&&&&&&&&&&&&&&&&&&&&&&&&",
"&&&&&&&&&&&&&&&&&&&&&&&&&&&&&&&&&&&&&&&&&&&&&&&&&&&&&&&&&&&&&&&&",
"&&&&&&&&&&&&&&&&&&&&&&&&&&&&&&&&&&&&&&&&&&&&&&&&&&&&&&&&&&&&&&&&",
"&&&&&&&&&&&&&&&&&&&&&&&&&&&&&&&&&&&&&&&&&&&&&&&&&&&&&&&&&&&&&&&&",
"&&&&&&&&&&&&&&&&&&&&&&&&&&&&&&&&&&&&&&&&&&&&&&&&&&&&&&&&&&&&&&&&",
"&&&&&&&&&&&&&&&&&&&&&&&&&&&&&&&&&&&&&&&&&&&&&&&&&&&&&&&&&&&&&&&&",
"&&&&&&&&&&&&&&&&&&&&&&&&&&&&&&&&&&&&&&&&&&&&&&&&&&&&&&&&&&&&&&&&",
"&&&&&&&&&&&&&&&&&&&&ooooOOOOOOOOOOOO&&&&&&&&&&&&&&&&&&&&&&&&&&&&",
"&&&&&&&&&&&&&&&&&&&&ooooOOOOOOOOOOOO&&&&&&&&&&&&&&&&&&&&&&&&&&&&",
"&&&&&&&&&&&&&&&&&&&&ooooOOOOOOOOOOOO&&&&&&&&&&&&&&&&&&&&&&&&&&&&",
"&&&&&&&&&&&&&&&&&&&&ooooOOOOOOOOOOOO&&&&&&&&&&&&&&&&&&&&&&&&&&&&",
"&&&&&&&&&&&&&&&&ooooOOOOOOOO$$$$$$$$OOOOOOOO&&&&ooooXXXX&&&&&&&&",
"&&&&&&&&&&&&&&&&ooooOOOOOOOO$$$$$$$$OOOOOOOO&&&&ooooXXXX&&&&&&&&",
"&&&&&&&&&&&&&&&&ooooOOOOOOOO$$$$$$$$OOOOOOOO&&&&ooooXXXX&&&&&&&&",
"&&&&&&&&&&&&&&&&ooooOOOOOOOO$$$$$$$$OOOOOOOO&&&&ooooXXXX&&&&&&&&",
"&&&&&&&&&&&&&&&&ooooOOOOoooo$$$$$$$$$$$$OOOOooooXXXXoooooooo&&&&",
"&&&&&&&&&&&&&&&&ooooOOOOoooo$$$$$$$$$$$$OOOOooooXXXXoooooooo&&&&",
"&&&&&&&&&&&&&&&&ooooOOOOoooo$$$$$$$$$$$$OOOOooooXXXXoooooooo&&&&",
"&&&&&&&&&&&&&&&&ooooOOOOoooo$$$$$$$$$$$$OOOOooooXXXXoooooooo&&&&",
"&&&&&&&&&&&&ooooOOOOoooo$$$$OOOO$$$$OOOO$$$$ooooooooooooXXXX&&&&",
"&&&&&&&&&&&&ooooOOOOoooo$$$$OOOO$$$$OOOO$$$$ooooooooooooXXXX&&&&",
"&&&&&&&&&&&&ooooOOOOoooo$$$$OOOO$$$$OOOO$$$$ooooooooooooXXXX&&&&",
"&&&&&&&&&&&&ooooOOOOoooo$$$$OOOO$$$$OOOO$$$$ooooooooooooXXXX&&&&",
"&&&&&&&&$$$$ooooOOOOoooo$$$$@@@@$$$$@@@@$$$$OOOO%%%%%%%%&&&&&&&&",
"&&&&&&&&$$$$ooooOOOOoooo$$$$@@@@$$$$@@@@$$$$OOOO%%%%%%%%&&&&&&&&",
"&&&&&&&&$$$$ooooOOOOoooo$$$$@@@@$$$$@@@@$$$$OOOO%%%%%%%%&&&&&&&&",
"&&&&&&&&$$$$ooooOOOOoooo$$$$@@@@$$$$@@@@$$$$OOOO%%%%%%%%&&&&&&&&",
"&&&&&&&&&&&&....++++$$$$$$$$$$$$$$$$$$$$$$$$$$$$%%%%$$$$&&&&&&&&",
"&&&&&&&&&&&&....++++$$$$$$$$$$$$$$$$$$$$$$$$$$$$%%%%$$$$&&&&&&&&",
"&&&&&&&&&&&&....++++$$$$$$$$$$$$$$$$$$$$$$$$$$$$%%%%$$$$&&&&&&&&",
"&&&&&&&&&&&&....++++$$$$$$$$$$$$$$$$$$$$$$$$$$$$%%%%$$$$&&&&&&&&",
"&&&&&&&&oooo####....++++$$$$$$$$$$$$$$$$$$$$&&&&....%%%%&&&&&&&&",
"&&&&&&&&oooo####....++++$$$$$$$$$$$$$$$$$$$$&&&&....%%%%&&&&&&&&",
"&&&&&&&&oooo####....++++$$$$$$$$$$$$$$$$$$$$&&&&....%%%%&&&&&&&&",
"&&&&&&&&oooo####....++++$$$$$$$$$$$$$$$$$$$$&&&&....%%%%&&&&&&&&",
"&&&&&&&&ooooOOOO&&&&....++++++++++++++++........&&&&&&&&&&&&&&&&",
"&&&&&&&&ooooOOOO&&&&....++++++++++++++++........&&&&&&&&&&&&&&&&",
"&&&&&&&&ooooOOOO&&&&....++++++++++++++++........&&&&&&&&&&&&&&&&",
"&&&&&&&&ooooOOOO&&&&....++++++++++++++++........&&&&&&&&&&&&&&&&",
"&&&&&&&&OOOOoooo&&&&........................&&&&&&&&&&&&&&&&&&&&",
"&&&&&&&&OOOOoooo&&&&........................&&&&&&&&&&&&&&&&&&&&",
"&&&&&&&&OOOOoooo&&&&........................&&&&&&&&&&&&&&&&&&&&",
"&&&&&&&&OOOOoooo&&&&........................&&&&&&&&&&&&&&&&&&&&",
"&&&&&&&&OOOOoooo&&&&........................&&&&&&&&&&&&&&&&&&&&",
"&&&&&&&&OOOOoooo&&&&........................&&&&&&&&&&&&&&&&&&&&",
"&&&&&&&&OOOOoooo&&&&........................&&&&&&&&&&&&&&&&&&&&",
"&&&&&&&&OOOOoooo&&&&........................&&&&&&&&&&&&&&&&&&&&",
"&&&&&&&&OOOO&&&&&&&&........................&&&&&&&&&&&&&&&&&&&&",
"&&&&&&&&OOOO&&&&&&&&........................&&&&&&&&&&&&&&&&&&&&",
"&&&&&&&&OOOO&&&&&&&&........................&&&&&&&&&&&&&&&&&&&&",
"&&&&&&&&OOOO&&&&&&&&........................&&&&&&&&&&&&&&&&&&&&",
"&&&&&&&&&&&&&&&&&&&&    ....&&&&&&&&....    &&&&&&&&&&&&&&&&&&&&",
"&&&&&&&&&&&&&&&&&&&&    ....&&&&&&&&....    &&&&&&&&&&&&&&&&&&&&",
"&&&&&&&&&&&&&&&&&&&&    ....&&&&&&&&....    &&&&&&&&&&&&&&&&&&&&",
"&&&&&&&&&&&&&&&&&&&&    ....&&&&&&&&....    &&&&&&&&&&&&&&&&&&&&",
"&&&&&&&&&&&&####&&&&        &&&&&&&&        &&&&&&&&&&&&&&&&&&&&",
"&&&&&&&&&&&&####&&&&        &&&&&&&&        &&&&&&&&&&&&&&&&&&&&",
"&&&&&&&&&&&&####&&&&        &&&&&&&&        &&&&&&&&&&&&&&&&&&&&",
"&&&&&&&&&&&&####&&&&        &&&&&&&&        &&&&&&&&&&&&&&&&&&&&",
"&&&&&&&&&&&&&&&&&&&&            &&&&            &&&&&&&&&&&&&&&&",
"&&&&&&&&&&&&&&&&&&&&            &&&&            &&&&&&&&&&&&&&&&",
"&&&&&&&&&&&&&&&&&&&&            &&&&            &&&&&&&&&&&&&&&&",
"&&&&&&&&&&&&&&&&&&&&            &&&&            &&&&&&&&&&&&&&&&"
};
