/* XPM */
static char *result[] = {
/* columns rows colors chars-per-pixel */
"64 64 11 1 ",
"  c #833100",
". c #FE0000",
"X c #FF4200",
"o c #FFDE00",
"O c #FFFF3A",
"+ c #FFAD63",
"@ c #64A5FF",
"# c #FFF29F",
"$ c #F7C4A5",
"% c #FFFFA5",
"& c None",
/* pixels */
"&&&&&&&&&&&&&&&&&&&&&&&&&&&&&&&&&&&&&&&&&&&&&&&&&&&&&&&&&&&&&&&&",
"&&&&&&&&&&&&&&&&&&&&&&&&&&&&&&&&&&&&&&&&&&&&&&&&&&&&&&&&&&&&&&&&",
"&&&&&&&&&&&&&&&&&&&&&&&&&&&&&&&&&&&&&&&&&&&&&&&&&&&&&&&&&&&&&&&&",
"&&&&&&&&&&&&&&&&&&&&&&&&&&&&&&&&&&&&&&&&&&&&&&&&&&&&&&&&&&&&&&&&",
"&&&&&&&&&&&&&&&&&&&&&&&&&&&&&&&&####&&&&&&&&&&&&&&&&&&&&&&&&&&&&",
"&&&&&&&&&&&&&&&&&&&&&&&&&&&&&&&&####&&&&&&&&&&&&&&&&&&&&&&&&&&&&",
"&&&&&&&&&&&&&&&&&&&&&&&&&&&&&&&&####&&&&&&&&&&&&&&&&&&&&&&&&&&&&",
"&&&&&&&&&&&&&&&&&&&&&&&&&&&&&&&&####&&&&&&&&&&&&&&&&&&&&&&&&&&&&",
"&&&&&&&&&&&&&&&&&&&&&&&&&&&&OOOOOOOOOOOOoooo&&&&&&&&&&&&&&&&&&&&",
"&&&&&&&&&&&&&&&&&&&&&&&&&&&&OOOOOOOOOOOOoooo&&&&&&&&&&&&&&&&&&&&",
"&&&&&&&&&&&&&&&&&&&&&&&&&&&&OOOOOOOOOOOOoooo&&&&&&&&&&&&&&&&&&&&",
"&&&&&&&&&&&&&&&&&&&&&&&&&&&&OOOOOOOOOOOOoooo&&&&&&&&&&&&&&&&&&&&",
"&&&&&&&&XXXXoooo&&&&OOOOOOOO$$$$$$$$OOOOOOOOoooo&&&&&&&&&&&&&&&&",
"&&&&&&&&XXXXoooo&&&&OOOOOOOO$$$$$$$$OOOOOOOOoooo&&&&&&&&&&&&&&&&",
"&&&&&&&&XXXXoooo&&&&OOOOOOOO$$$$$$$$OOOOOOOOoooo&&&&&&&&&&&&&&&&",
"&&&&&&&&XXXXoooo&&&&OOOOOOOO$$$$$$$$OOOOOOOOoooo&&&&&&&&&&&&&&&&",
"&&&&ooooooooXXXXooooOOOO$$$$$$$$$$$$ooooOOOOoooo&&&&&&&&&&&&&&&&",
"&&&&ooooooooXXXXooooOOOO$$$$$$$$$$$$ooooOOOOoooo&&&&&&&&&&&&&&&&",
"&&&&ooooooooXXXXooooOOOO$$$$$$$$$$$$ooooOOOOoooo&&&&&&&&&&&&&&&&",
"&&&&ooooooooXXXXooooOOOO$$$$$$$$$$$$ooooOOOOoooo&&&&&&&&&&&&&&&&",
"&&&&XXXXoooooooooooo$$$$OOOO$$$$OOOO$$$$ooooOOOOoooo&&&&&&&&&&&&",
"&&&&XXXXoooooooooooo$$$$OOOO$$$$OOOO$$$$ooooOOOOoooo&&&&&&&&&&&&",
"&&&&XXXXoooooooooooo$$$$OOOO$$$$OOOO$$$$ooooOOOOoooo&&&&&&&&&&&&",
"&&&&XXXXoooooooooooo$$$$OOOO$$$$OOOO$$$$ooooOOOOoooo&&&&&&&&&&&&",
"&&&&&&&&%%%%%%%%OOOO$$$$@@@@$$$$@@@@$$$$ooooOOOOoooo$$$$&&&&&&&&",
"&&&&&&&&%%%%%%%%OOOO$$$$@@@@$$$$@@@@$$$$ooooOOOOoooo$$$$&&&&&&&&",
"&&&&&&&&%%%%%%%%OOOO$$$$@@@@$$$$@@@@$$$$ooooOOOOoooo$$$$&&&&&&&&",
"&&&&&&&&%%%%%%%%OOOO$$$$@@@@$$$$@@@@$$$$ooooOOOOoooo$$$$&&&&&&&&",
"&&&&&&&&$$$$%%%%$$$$$$$$$$$$$$$$####$$$$$$$$++++....&&&&&&&&&&&&",
"&&&&&&&&$$$$%%%%$$$$$$$$$$$$$$$$####$$$$$$$$++++....&&&&&&&&&&&&",
"&&&&&&&&$$$$%%%%$$$$$$$$$$$$$$$$####$$$$$$$$++++....&&&&&&&&&&&&",
"&&&&&&&&$$$$%%%%$$$$$$$$$$$$$$$$####$$$$$$$$++++....&&&&&&&&&&&&",
"&&&&&&&&%%%%....&&&&$$$$$$$$$$$$$$$$$$$$++++....OOOOoooo&&&&&&&&",
"&&&&&&&&%%%%....&&&&$$$$$$$$$$$$$$$$$$$$++++....OOOOoooo&&&&&&&&",
"&&&&&&&&%%%%....&&&&$$$$$$$$$$$$$$$$$$$$++++....OOOOoooo&&&&&&&&",
"&&&&&&&&%%%%....&&&&$$$$$$$$$$$$$$$$$$$$++++....OOOOoooo&&&&&&&&",
"&&&&&&&&&&&&&&&&........++++++++++++++++....&&&&OOOOoooo&&&&&&&&",
"&&&&&&&&&&&&&&&&........++++++++++++++++....&&&&OOOOoooo&&&&&&&&",
"&&&&&&&&&&&&&&&&........++++++++++++++++....&&&&OOOOoooo&&&&&&&&",
"&&&&&&&&&&&&&&&&........++++++++++++++++....&&&&OOOOoooo&&&&&&&&",
"&&&&&&&&&&&&&&&&&&&&........................&&&&ooooOOOO&&&&&&&&",
"&&&&&&&&&&&&&&&&&&&&........................&&&&ooooOOOO&&&&&&&&",
"&&&&&&&&&&&&&&&&&&&&........................&&&&ooooOOOO&&&&&&&&",
"&&&&&&&&&&&&&&&&&&&&........................&&&&ooooOOOO&&&&&&&&",
"&&&&&&&&&&&&&&&&&&&&........................&&&&ooooOOOO&&&&&&&&",
"&&&&&&&&&&&&&&&&&&&&........................&&&&ooooOOOO&&&&&&&&",
"&&&&&&&&&&&&&&&&&&&&........................&&&&ooooOOOO&&&&&&&&",
"&&&&&&&&&&&&&&&&&&&&........................&&&&ooooOOOO&&&&&&&&",
"&&&&&&&&&&&&&&&&&&&&####....................&&&&&&&&OOOO&&&&&&&&",
"&&&&&&&&&&&&&&&&&&&&####....................&&&&&&&&OOOO&&&&&&&&",
"&&&&&&&&&&&&&&&&&&&&####....................&&&&&&&&OOOO&&&&&&&&",
"&&&&&&&&&&&&&&&&&&&&####....................&&&&&&&&OOOO&&&&&&&&",
"####&&&&&&&&&&&&&&&&    ....&&&&&&&&....    &&&&&&&&&&&&&&&&&&&&",
"####&&&&&&&&&&&&&&&&    ....&&&&&&&&....    &&&&&&&&&&&&&&&&&&&&",
"####&&&&&&&&&&&&&&&&    ....&&&&&&&&....    &&&&&&&&&&&&&&&&&&&&",
"####&&&&&&&&&&&&&&&&    ....&&&&&&&&....    &&&&&&&&&&&&&&&&&&&&",
"&&&&&&&&&&&&&&&&&&&&        &&&&&&&&        &&&&&&&&&&&&&&&&&&&&",
"&&&&&&&&&&&&&&&&&&&&        &&&&&&&&        &&&&&&&&&&&&&&&&&&&&",
"&&&&&&&&&&&&&&&&&&&&        &&&&&&&&        &&&&&&&&&&&&&&&&&&&&",
"&&&&&&&&&&&&&&&&&&&&        &&&&&&&&        &&&&&&&&&&&&&&&&&&&&",
"&&&&&&&&&&&&&&&&            &&&&            &&&&&&&&&&&&&&&&&&&&",
"&&&&&&&&&&&&&&&&            &&&&            &&&&&&&&&&&&&&&&&&&&",
"&&&&&&&&&&&&&&&&            &&&&            &&&&&&&&&&&&&&&&&&&&",
"&&&&&&&&&&&&&&&&            &&&&            &&&&&&&&&&&&&&&&&&&&"
};
