/* XPM */
static char *result[] = {
/* columns rows colors chars-per-pixel */
"64 64 11 1 ",
"  c #833100",
". c #FE0000",
"X c #FF4200",
"o c #FFDE00",
"O c #FFFF3A",
"+ c #FFAD63",
"@ c #64A5FF",
"# c #FF8E8E",
"$ c #F7C4A5",
"% c #FFFFA5",
"& c None",
/* pixels */
"&&&&&&&&&&&&&&&&&&&&&&&&&&&&&&&&&&&&&&&&&&&&&&&&&&&&&&&&&&&&&&&&",
"&&&&&&&&&&&&&&&&&&&&&&&&&&&&&&&&&&&&&&&&&&&&&&&&&&&&&&&&&&&&&&&&",
"&&&&&&&&&&&&&&&&&&&&&&&&&&&&&&&&&&&&&&&&&&&&&&&&&&&&&&&&&&&&&&&&",
"&&&&&&&&&&&&&&&&&&&&&&&&&&&&&&&&&&&&&&&&&&&&&&&&&&&&&&&&&&&&&&&&",
"&&&&&&&&&&&&&&&&oooo&&&&&&&&&&&&&&&&&&&&&&&&&&&&&&&&&&&&&&&&&&&&",
"&&&&&&&&&&&&&&&&oooo&&&&&&&&&&&&&&&&&&&&&&&&&&&&&&&&&&&&&&&&&&&&",
"&&&&&&&&&&&&&&&&oooo&&&&&&&&&&&&&&&&&&&&&&&&&&&&&&&&&&&&&&&&&&&&",
"&&&&&&&&&&&&&&&&oooo&&&&&&&&&&&&&&&&&&&&&&&&&&&&&&&&&&&&&&&&&&&&",
"&&&&oooo&&&&&&&&&&&&&&&&&&&&OOOOOOOOOOOOoooo&&&&&&&&&&&&&&&&&&&&",
"&&&&oooo&&&&&&&&&&&&&&&&&&&&OOOOOOOOOOOOoooo&&&&&&&&&&&&&&&&&&&&",
"&&&&oooo&&&&&&&&&&&&&&&&&&&&OOOOOOOOOOOOoooo&&&&&&&&&&&&&&&&&&&&",
"&&&&oooo&&&&&&&&&&&&&&&&&&&&OOOOOOOOOOOOoooo&&&&&&&&&&&&&&&&&&&&",
"&&&&&&&&####oooo&&&&ooooOOOO$$$$$$$$OOOOOOOOoooo&&&&&&&&&&&&&&&&",
"&&&&&&&&####oooo&&&&ooooOOOO$$$$$$$$OOOOOOOOoooo&&&&&&&&&&&&&&&&",
"&&&&&&&&####oooo&&&&ooooOOOO$$$$$$$$OOOOOOOOoooo&&&&&&&&&&&&&&&&",
"&&&&&&&&####oooo&&&&ooooOOOO$$$$$$$$OOOOOOOOoooo&&&&&&&&&&&&&&&&",
"&&&&oooooooo####ooooOOOO$$$$$$$$$$$$ooooOOOOoooo&&&&&&&&&&&&&&&&",
"&&&&oooooooo####ooooOOOO$$$$$$$$$$$$ooooOOOOoooo&&&&&&&&&&&&&&&&",
"&&&&oooooooo####ooooOOOO$$$$$$$$$$$$ooooOOOOoooo&&&&&&&&&&&&&&&&",
"&&&&oooooooo####ooooOOOO$$$$$$$$$$$$ooooOOOOoooo&&&&&&&&&&&&&&&&",
"&&&&XXXXoooooooooooo$$$$OOOO$$$$OOOO$$$$ooooOOOOoooo&&&&&&&&&&&&",
"&&&&XXXXoooooooooooo$$$$OOOO$$$$OOOO$$$$ooooOOOOoooo&&&&&&&&&&&&",
"&&&&XXXXoooooooooooo$$$$OOOO$$$$OOOO$$$$ooooOOOOoooo&&&&&&&&&&&&",
"&&&&XXXXoooooooooooo$$$$OOOO$$$$OOOO$$$$ooooOOOOoooo&&&&&&&&&&&&",
"&&&&&&&&%%%%%%%%OOOO$$$$@@@@$$$$@@@@$$$$ooooOOOOoooo$$$$&&&&&&&&",
"&&&&&&&&%%%%%%%%OOOO$$$$@@@@$$$$@@@@$$$$ooooOOOOoooo$$$$&&&&&&&&",
"&&&&&&&&%%%%%%%%OOOO$$$$@@@@$$$$@@@@$$$$ooooOOOOoooo$$$$&&&&&&&&",
"&&&&&&&&%%%%%%%%OOOO$$$$@@@@$$$$@@@@$$$$ooooOOOOoooo$$$$&&&&&&&&",
"&&&&oooo$$$$%%%%$$$$oooo$$$$$$$$$$$$$$$$$$$$++++....&&&&&&&&&&&&",
"&&&&oooo$$$$%%%%$$$$oooo$$$$$$$$$$$$$$$$$$$$++++....&&&&&&&&&&&&",
"&&&&oooo$$$$%%%%$$$$oooo$$$$$$$$$$$$$$$$$$$$++++....&&&&&&&&&&&&",
"&&&&oooo$$$$%%%%$$$$oooo$$$$$$$$$$$$$$$$$$$$++++....&&&&&&&&&&&&",
"&&&&&&&&%%%%....&&&&$$$$$$$$$$$$$$$$$$$$++++....OOOOoooo&&&&&&&&",
"&&&&&&&&%%%%....&&&&$$$$$$$$$$$$$$$$$$$$++++....OOOOoooo&&&&&&&&",
"&&&&&&&&%%%%....&&&&$$$$$$$$$$$$$$$$$$$$++++....OOOOoooo&&&&&&&&",
"&&&&&&&&%%%%....&&&&$$$$$$$$$$$$$$$$$$$$++++....OOOOoooo&&&&&&&&",
"oooo&&&&&&&&&&&&........++++++++++++++++....&&&&OOOOoooo&&&&&&&&",
"oooo&&&&&&&&&&&&........++++++++++++++++....&&&&OOOOoooo&&&&&&&&",
"oooo&&&&&&&&&&&&........++++++++++++++++....&&&&OOOOoooo&&&&&&&&",
"oooo&&&&&&&&&&&&........++++++++++++++++....&&&&OOOOoooo&&&&&&&&",
"&&&&&&&&&&&&&&&&&&&&........................&&&&ooooOOOO&&&&&&&&",
"&&&&&&&&&&&&&&&&&&&&........................&&&&ooooOOOO&&&&&&&&",
"&&&&&&&&&&&&&&&&&&&&........................&&&&ooooOOOO&&&&&&&&",
"&&&&&&&&&&&&&&&&&&&&........................&&&&ooooOOOO&&&&&&&&",
"&&&&&&&&&&&&&&&&&&&&........................&&&&ooooOOOO&&&&&&&&",
"&&&&&&&&&&&&&&&&&&&&........................&&&&ooooOOOO&&&&&&&&",
"&&&&&&&&&&&&&&&&&&&&........................&&&&ooooOOOO&&&&&&&&",
"&&&&&&&&&&&&&&&&&&&&........................&&&&ooooOOOO&&&&&&&&",
"&&&&&&&&&&&&&&&&&&&&&&&&....................&&&&&&&&OOOO&&&&&&&&",
"&&&&&&&&&&&&&&&&&&&&&&&&....................&&&&&&&&OOOO&&&&&&&&",
"&&&&&&&&&&&&&&&&&&&&&&&&....................&&&&&&&&OOOO&&&&&&&&",
"&&&&&&&&&&&&&&&&&&&&&&&&....................&&&&&&&&OOOO&&&&&&&&",
"&&&&&&&&&&&&&&&&&&&&    ....&&&&&&&&....    &&&&&&&&&&&&&&&&&&&&",
"&&&&&&&&&&&&&&&&&&&&    ....&&&&&&&&....    &&&&&&&&&&&&&&&&&&&&",
"&&&&&&&&&&&&&&&&&&&&    ....&&&&&&&&....    &&&&&&&&&&&&&&&&&&&&",
"&&&&&&&&&&&&&&&&&&&&    ....&&&&&&&&....    &&&&&&&&&&&&&&&&&&&&",
"&&&&&&&&&&&&&&&&&&&&        &&&&&&&&        &&&&&&&&&&&&&&&&&&&&",
"&&&&&&&&&&&&&&&&&&&&        &&&&&&&&        &&&&&&&&&&&&&&&&&&&&",
"&&&&&&&&&&&&&&&&&&&&        &&&&&&&&        &&&&&&&&&&&&&&&&&&&&",
"&&&&&&&&&&&&&&&&&&&&        &&&&&&&&        &&&&&&&&&&&&&&&&&&&&",
"&&&&&&&&&&&&&&&&            &&&&            &&&&&&&&&&&&&&&&&&&&",
"&&&&&&&&&&&&&&&&            &&&&            &&&&&&&&&&&&&&&&&&&&",
"&&&&&&&&&&&&&&&&            &&&&            &&&&&&&&&&&&&&&&&&&&",
"&&&&&&&&&&&&&&&&            &&&&            &&&&&&&&&&&&&&&&&&&&"
};
