/* XPM */
static char *result[] = {
/* columns rows colors chars-per-pixel */
"64 64 9 1 ",
"  c #833100",
". c #FE0000",
"X c #FFDE00",
"o c #FFFF3A",
"O c #FFAD63",
"+ c #0000FE",
"@ c #64A5FF",
"# c #F7C4A5",
"$ c None",
/* pixels */
"$$$$$$$$$$$$$$$$$$$$$$$$$$$$$$$$$$$$$$$$$$$$$$$$$$$$$$$$$$$$$$$$",
"$$$$$$$$$$$$$$$$$$$$$$$$$$$$$$$$$$$$$$$$$$$$$$$$$$$$$$$$$$$$$$$$",
"$$$$$$$$$$$$$$$$$$$$$$$$$$$$$$$$$$$$$$$$$$$$$$$$$$$$$$$$$$$$$$$$",
"$$$$$$$$$$$$$$$$$$$$$$$$$$$$$$$$$$$$$$$$$$$$$$$$$$$$$$$$$$$$$$$$",
"$$$$$$$$$$$$$$$$$$$$$$$$$$$$$$$$$$$$$$$$$$$$$$$$$$$$$$$$$$$$$$$$",
"$$$$$$$$$$$$$$$$$$$$$$$$$$$$$$$$$$$$$$$$$$$$$$$$$$$$$$$$$$$$$$$$",
"$$$$$$$$$$$$$$$$$$$$$$$$$$$$$$$$$$$$$$$$$$$$$$$$$$$$$$$$$$$$$$$$",
"$$$$$$$$$$$$$$$$$$$$$$$$$$$$$$$$$$$$$$$$$$$$$$$$$$$$$$$$$$$$$$$$",
"$$$$$$$$$$$$$$$$$$$$$$$$$$$$$$$$$$$$$$$$$$$$$$$$$$$$$$$$$$$$$$$$",
"$$$$$$$$$$$$$$$$$$$$$$$$$$$$$$$$$$$$$$$$$$$$$$$$$$$$$$$$$$$$$$$$",
"$$$$$$$$$$$$$$$$$$$$$$$$$$$$$$$$$$$$$$$$$$$$$$$$$$$$$$$$$$$$$$$$",
"$$$$$$$$$$$$$$$$$$$$$$$$$$$$$$$$$$$$$$$$$$$$$$$$$$$$$$$$$$$$$$$$",
"$$$$$$$$$$$$$$$$$$$$$$$$$$$$ooooooooooooXXXX$$$$$$$$$$$$$$$$$$$$",
"$$$$$$$$$$$$$$$$$$$$$$$$$$$$ooooooooooooXXXX$$$$$$$$$$$$$$$$$$$$",
"$$$$$$$$$$$$$$$$$$$$$$$$$$$$ooooooooooooXXXX$$$$$$$$$$$$$$$$$$$$",
"$$$$$$$$$$$$$$$$$$$$$$$$$$$$ooooooooooooXXXX$$$$$$$$$$$$$$$$$$$$",
"$$$$$$$$$$$$$$$$$$$$ooooooooooooooooooooooooXXXX$$$$$$$$$$$$$$$$",
"$$$$$$$$$$$$$$$$$$$$ooooooooooooooooooooooooXXXX$$$$$$$$$$$$$$$$",
"$$$$$$$$$$$$$$$$$$$$ooooooooooooooooooooooooXXXX$$$$$$$$$$$$$$$$",
"$$$$$$$$$$$$$$$$$$$$ooooooooooooooooooooooooXXXX$$$$$$$$$$$$$$$$",
"$$$$$$$$$$$$$$$$$$$$ooooooooXXXXXXXXXXXXooooXXXX$$$$$$$$$$$$$$$$",
"$$$$$$$$$$$$$$$$$$$$ooooooooXXXXXXXXXXXXooooXXXX$$$$$$$$$$$$$$$$",
"$$$$$$$$$$$$$$$$$$$$ooooooooXXXXXXXXXXXXooooXXXX$$$$$$$$$$$$$$$$",
"$$$$$$$$$$$$$$$$$$$$ooooooooXXXXXXXXXXXXooooXXXX$$$$$$$$$$$$$$$$",
"$$$$$$$$$$$$$$$$oooo####################XXXXooooXXXX$$$$$$$$$$$$",
"$$$$$$$$$$$$$$$$oooo####################XXXXooooXXXX$$$$$$$$$$$$",
"$$$$$$$$$$$$$$$$oooo####################XXXXooooXXXX$$$$$$$$$$$$",
"$$$$$$$$$$$$$$$$oooo####################XXXXooooXXXX$$$$$$$$$$$$",
"$$$$$$$$$$$$$$$$oooo####oooo####oooo####XXXXooooXXXX$$$$$$$$$$$$",
"$$$$$$$$$$$$$$$$oooo####oooo####oooo####XXXXooooXXXX$$$$$$$$$$$$",
"$$$$$$$$$$$$$$$$oooo####oooo####oooo####XXXXooooXXXX$$$$$$$$$$$$",
"$$$$$$$$$$$$$$$$oooo####oooo####oooo####XXXXooooXXXX$$$$$$$$$$$$",
"$$$$$$$$$$$$$$$$########@@@@####@@@@########OOOO++++$$$$$$$$$$$$",
"$$$$$$$$$$$$$$$$########@@@@####@@@@########OOOO++++$$$$$$$$$$$$",
"$$$$$$$$$$$$$$$$########@@@@####@@@@########OOOO++++$$$$$$$$$$$$",
"$$$$$$$$$$$$$$$$########@@@@####@@@@########OOOO++++$$$$$$$$$$$$",
"$$$$$$$$$$$$$$$$$$$$####################OOOOXXXXooooXXXX$$$$$$$$",
"$$$$$$$$$$$$$$$$$$$$####################OOOOXXXXooooXXXX$$$$$$$$",
"$$$$$$$$$$$$$$$$$$$$####################OOOOXXXXooooXXXX$$$$$$$$",
"$$$$$$$$$$$$$$$$$$$$####################OOOOXXXXooooXXXX$$$$$$$$",
"$$$$$$$$$$$$$$$$........OOOOOOOOOOOOOOOO....XXXXooooXXXX$$$$$$$$",
"$$$$$$$$$$$$$$$$........OOOOOOOOOOOOOOOO....XXXXooooXXXX$$$$$$$$",
"$$$$$$$$$$$$$$$$........OOOOOOOOOOOOOOOO....XXXXooooXXXX$$$$$$$$",
"$$$$$$$$$$$$$$$$........OOOOOOOOOOOOOOOO....XXXXooooXXXX$$$$$$$$",
"$$$$$$$$$$$$....$$$$............................XXXXoooo$$$$$$$$",
"$$$$$$$$$$$$....$$$$............................XXXXoooo$$$$$$$$",
"$$$$$$$$$$$$....$$$$............................XXXXoooo$$$$$$$$",
"$$$$$$$$$$$$....$$$$............................XXXXoooo$$$$$$$$",
"$$$$$$$$$$$$####$$$$........................$$$$XXXXoooo$$$$$$$$",
"$$$$$$$$$$$$####$$$$........................$$$$XXXXoooo$$$$$$$$",
"$$$$$$$$$$$$####$$$$........................$$$$XXXXoooo$$$$$$$$",
"$$$$$$$$$$$$####$$$$........................$$$$XXXXoooo$$$$$$$$",
"$$$$$$$$$$$$$$$$$$$$$$$$............####....$$$$$$$$oooo$$$$$$$$",
"$$$$$$$$$$$$$$$$$$$$$$$$............####....$$$$$$$$oooo$$$$$$$$",
"$$$$$$$$$$$$$$$$$$$$$$$$............####....$$$$$$$$oooo$$$$$$$$",
"$$$$$$$$$$$$$$$$$$$$$$$$............####....$$$$$$$$oooo$$$$$$$$",
"$$$$$$$$$$$$$$$$$$$$$$$$        $$$$        $$$$$$$$$$$$$$$$$$$$",
"$$$$$$$$$$$$$$$$$$$$$$$$        $$$$        $$$$$$$$$$$$$$$$$$$$",
"$$$$$$$$$$$$$$$$$$$$$$$$        $$$$        $$$$$$$$$$$$$$$$$$$$",
"$$$$$$$$$$$$$$$$$$$$$$$$        $$$$        $$$$$$$$$$$$$$$$$$$$",
"$$$$$$$$$$$$$$$$$$$$                        $$$$$$$$$$$$$$$$$$$$",
"$$$$$$$$$$$$$$$$$$$$                        $$$$$$$$$$$$$$$$$$$$",
"$$$$$$$$$$$$$$$$$$$$                        $$$$$$$$$$$$$$$$$$$$",
"$$$$$$$$$$$$$$$$$$$$                        $$$$$$$$$$$$$$$$$$$$"
};
